<svg id="Layer_1" data-name="Layer 1" xmlns="http://www.w3.org/2000/svg" viewBox="0 0 233.65 228.83"><defs><style>.cls-1{fill:#b9133a;}.cls-2,.cls-3{isolation:isolate;}.cls-3{font-size:1px;fill:#d4d4d5;font-family:Arial-BoldMT, Arial;font-weight:700;}</style></defs><title>oribird</title><g id="Group_12" data-name="Group 12"><g id="Group_11" data-name="Group 11"><path id="Path_128" data-name="Path 128" class="cls-1" d="M133.64,184.72l-1.82-2.32L62.36,202.08l65.3,16.74Z" transform="translate(-6.23 -43.81)"/><path id="Path_129" data-name="Path 129" class="cls-1" d="M49.39,72.36c27.29,35.22,57.28,75,84.6,110.16,5.59-32.11,12.52-68.55,18.11-100.65Z" transform="translate(-6.23 -43.81)"/><path id="Path_130" data-name="Path 130" class="cls-1" d="M140.92,153.23c-3.82,21.49-8,43.92-11.7,65.35l87.6-63.68Z" transform="translate(-6.23 -43.81)"/><path id="Path_131" data-name="Path 131" class="cls-1" d="M153.08,83.14l-11.89,68.92,59.51,1.22Z" transform="translate(-6.23 -43.81)"/><path id="Path_132" data-name="Path 132" class="cls-1" d="M182.57,124.34l19.62,28.76,15,.4,17-40.57-31.95,1.74C196.71,117.38,188.14,121.64,182.57,124.34Z" transform="translate(-6.23 -43.81)"/><path id="Path_133" data-name="Path 133" class="cls-1" d="M159.6,74.7,77.19,43.81,89.56,74.7c64.33,5.54,63.66,5.73,63.59,5.73l28.9,42.88,1.55-.75Z" transform="translate(-6.23 -43.81)"/><path id="Path_134" data-name="Path 134" class="cls-1" d="M235.78,113.25l-5.2,12.45,9.3,3.51Z" transform="translate(-6.23 -43.81)"/></g><g id="Created_by_Danishicon" data-name="Created by Danishicon" class="cls-2"><text class="cls-3" transform="translate(0.14 224.59) rotate(21)">Created by Danishicon</text></g></g></svg>