<svg xmlns="http://www.w3.org/2000/svg" xmlns:xlink="http://www.w3.org/1999/xlink" width="1920" height="1080" viewBox="0 0 1920 1080">
  <defs>
    <clipPath id="clip-path">
      <rect id="Rectangle_5" data-name="Rectangle 5" width="1920" height="1080" fill="#fff" stroke="#707070" stroke-width="1"/>
    </clipPath>
    <clipPath id="clip-Home">
      <rect width="1920" height="1080"/>
    </clipPath>
  </defs>
  <g id="Home" clip-path="url(#clip-Home)">
    <rect width="1920" height="1080" fill="#0c3574"/>
    <g id="Mask_Group_2" data-name="Mask Group 2" clip-path="url(#clip-path)">
      <g id="green_leaves" data-name="green leaves" transform="translate(-21 -17.63)">
        <path id="Path_110" data-name="Path 110" d="M400.583,144.1c-8.694,6.762-18.033,12.881-28.015,17.067-9.017,3.542-19.321,4.508-28.337,7.728-13.525,4.508-28.337,9.983-40.252,18.355-7.406,5.474-13.847,11.593-20.609,18.033,6.118-8.694,12.559-17.389,19.321-25.439l.322-.322V179.2c10.3-8.694,20.609-17.389,28.982-27.693a84.46,84.46,0,0,0,16.745-35.1,147.507,147.507,0,0,0,2.9-41.218c-1.288-16.745-6.762-35.422,2.254-51.2a1.745,1.745,0,0,0-2.9-1.932c-10.627,12.559-20.931,25.117-30.592,38.32-8.694,11.915-16.745,24.473-21.575,38.642-9.016,26.083-8.05,54.743-.644,81.148-7.084,8.694-13.525,17.711-19.965,26.727.966-2.254,1.61-4.186,2.576-6.44a116.476,116.476,0,0,0,5.8-37.676,126.691,126.691,0,0,0-11.271-52.167c-7.406-17.389-19.643-33.49-20.609-52.811,0-1.932-3.22-1.61-3.542,0-2.254,17.067-5.152,34.134-8.694,50.879-2.9,13.525-6.44,27.049-7.084,40.9-.644,12.559.644,25.439,4.83,37.354,3.22,9.66,15,29.848,20.148,37.9,2.239,7.607.288,7.222.288,7.222-.322.322-11.1,18.317-12.064,19.6-3.542,6.118-7.084,12.237-10.3,18.677.322-11.915-2.576-24.473-5.474-35.744-3.864-15.135-9.983-29.626-16.745-43.794-7.084-15.135-14.169-29.3-18.033-45.726-2.9-12.237-3.864-24.8-6.44-37.032a1.807,1.807,0,0,0-3.542,0c-2.9,20.609-6.44,40.9-9.661,61.505-2.576,17.711-9.016,35.1-8.372,53.133.966,28.659,13.115,55.766,35.012,74.443-.348.017,4.51,3.886,9.75,7.195,2.015,1.274,4.893,3.847,6.291,3.567-5.152,16.1-16.6,57.127-17.885,73.55,0,.322-.322.644-.322.966v.644a251.574,251.574,0,0,0-.644,31.236,84.862,84.862,0,0,0,.644,9.016,358.63,358.63,0,0,0-37.032-62.471c-8.372-11.271-17.067-21.575-21.9-35.1s-6.44-28.015-8.372-42.184a1.686,1.686,0,0,0-3.22-.322,166.249,166.249,0,0,0-8.694,28.015c-2.254,10.3-2.9,21.253-3.542,31.558-1.288,18.677-1.932,40.9,7.406,57.963,8.694,16.423,22.541,30.914,36.066,43.794,7.084,6.762,42.5,30.908,43.864,33.393,2.084,3.812,2.638,12.261,3.473,9.757.644,3.864,1.61,7.728,2.254,11.593,6.44,30.27,15.457,60.539,30.27,87.589a1.8,1.8,0,0,0,3.22-1.61c-11.915-22.219-20.287-46.37-26.405-71.166.322,0,.322-.322.644-.322h0c13.2-8.372,26.083-17.711,37.032-28.981,11.271-11.593,18.677-24.8,24.8-39.93a283.268,283.268,0,0,0,14.491-46.048c2.9-14.169,3.22-29.3,9.017-42.828a1.416,1.416,0,0,0-.322-1.61,1.384,1.384,0,0,0-2.254-.644c-26.405,16.745-53.777,34.778-68.59,63.115-13.525,26.083-10.949,56.031-17.389,84.046a662.04,662.04,0,0,1-10.627-74.708,271.5,271.5,0,0,1-.966-28.015c.644,1.61,1.067-18.888,1.067-18.888s1.545-6.174,5.18-9.193c4.574-3.793,13.329-3.1,10.5-3.476,29.626-5.474,56.675-20.287,76.64-43.472a236.281,236.281,0,0,0,28.015-40.252c8.694-15.779,14.813-32.524,23.829-47.98.644-1.288-.644-3.542-2.254-2.576C331.027,243.28,311.706,251.008,294,262.6c-12.237,8.05-24.473,16.1-36.066,25.439-21.9,17.389-36.066,40.574-47.014,66.013.966-4.508,2.254-9.016,3.542-13.525A386.839,386.839,0,0,1,230.88,294.8c.322-.322.322-.644.644-.966h0l5.8-12.559c0-.322.322-.322.322-.644,3.22-7.084,6.762-13.847,10.627-20.609a103.266,103.266,0,0,1,6.118-9.983c26.083-17.067,59.573-15.779,87.589-28.015a91.7,91.7,0,0,0,38.32-30.592c9.983-13.847,14.813-29.948,23.185-44.438C404.125,144.743,402.193,142.811,400.583,144.1Zm-80.5-.322a178.951,178.951,0,0,0,10.949-34.456c4.83-20.609,7.084-41.862,12.559-62.149-3.542,24.8-2.9,50.557-9.983,74.708-3.542,11.915-8.694,23.829-16.423,33.812l-8.694,10.627C312.35,159.234,316.536,151.827,320.079,143.777Zm-16.423,23.829c3.22-19.321,6.118-38.964,11.915-57.641,5.474-18.677,13.525-36.71,22.541-54.1-3.542,16.745-5.8,34.134-9.66,50.879A217.993,217.993,0,0,1,317.5,141.523,284.63,284.63,0,0,1,303.656,167.606Zm8.694-58.929c-5.474,18.033-8.372,37.032-11.593,55.709a225.563,225.563,0,0,1,.644-25.439c.966-12.559,1.932-26.405,6.762-38.32s11.915-23.185,18.677-34.456l11.593-18.355C327.807,67.781,318.468,87.746,312.35,108.677Zm34.778-1.932c-2.254,14.813-6.762,28.66-16.1,40.574A138.376,138.376,0,0,1,313.316,166c2.254-2.9,4.83-5.8,7.084-8.694,7.406-9.339,12.237-20.931,16.1-32.2,7.084-22.863,7.084-47.014,9.983-70.522.322,1.932.322,4.186.644,6.118C348.416,76.153,349.382,91.288,347.128,106.745Zm-44.76-8.694c5.152-13.847,13.2-26.083,21.9-37.676,3.542-4.83,7.406-9.661,11.271-14.813-4.508,6.762-9.017,13.847-13.2,20.609-6.762,11.271-13.847,22.863-18.677,35.1-4.186,11.593-5.474,24.8-6.118,37.354-.644,7.084-.644,14.491-.644,21.575C294,139.591,295.283,118.015,302.368,98.05ZM206.085,453.879c0,.966.322,1.932.322,2.576a93.692,93.692,0,0,0-8.05-13.525c-5.474-7.728-10.627-15.779-16.1-23.829C170.341,401.39,158.1,384.323,149.41,364.68a172.328,172.328,0,0,1-10.3-31.558c.644,1.932,1.288,3.542,1.932,5.474,5.8,14.491,15.779,27.049,24.151,40.252l26.083,41.54c6.118,9.66,12.881,20.609,14.169,32.524A3.985,3.985,0,0,0,206.085,453.879ZM144.9,363.07c7.728,18.355,18.677,35.1,29.948,51.523,5.474,8.05,10.627,16.423,16.423,24.473,5.474,8.05,11.593,15.779,14.491,25.117-10.627-12.559-20.931-25.439-31.558-38-19.321-22.863-35.1-48.3-38.32-78.894-.644-7.084-.966-14.169-1.288-21.253A162,162,0,0,0,144.9,363.07Zm-1.61,23.507c10.627,22.541,27.693,40.574,43.15,59.9,4.83,6.118,9.983,11.915,14.813,18.033-1.288-.966-2.254-1.61-3.542-2.576a286.775,286.775,0,0,1-25.761-22.541c-21.575-21.9-38.642-48.947-42.828-79.86a119.038,119.038,0,0,1,0-30.27c.966-6.118,1.61-12.559,2.254-19C130.411,336.021,132.021,362.426,143.291,386.577Zm16.423-29.3c18.033,23.185,32.2,48.625,44.116,75.03a6.277,6.277,0,0,0,.322,2.576c-1.932-3.864-4.186-7.728-6.118-11.271-9.017-14.169-18.033-28.337-26.727-42.828-8.05-12.881-18.033-25.439-24.473-38.964a83.438,83.438,0,0,1-5.8-16.423C144.9,337.631,151.986,347.291,159.714,357.274ZM131.7,400.424c-9.983-17.389-9.016-39.93-7.728-58.929.644-9.339,1.288-19,2.9-28.66.644-3.542,1.61-6.762,2.254-10.3-.644,6.118-1.288,12.559-2.254,18.677a117.312,117.312,0,0,0-1.932,28.015,120.769,120.769,0,0,0,12.559,48.3c12.237,24.8,31.558,45.082,52.489,62.149,5.474,4.186,11.593,8.05,16.745,12.881a237.017,237.017,0,0,1-38-28.982C154.884,431.338,141.359,416.847,131.7,400.424Zm123.976,58.607c9.338-17.711,15.779-36.71,23.507-55.387a293.845,293.845,0,0,1,13.847-28.659c-7.728,21.9-11.271,45.082-19.965,66.657-5.474,13.2-14.169,24.473-22.863,35.422a335.2,335.2,0,0,1-22.863,25.117C237.642,488.335,247.3,474.488,255.675,459.031Zm-27.049,35.744c9.016-23.185,16.745-46.692,25.761-69.878,8.05-20.287,21.9-36.388,36.066-52.489a288.389,288.389,0,0,0-13.2,26.405c-8.05,18.677-14.169,38-23.507,56.031C246.659,469.014,237.642,482.216,228.626,494.775Zm23.507-73.1c-8.372,20.609-15.457,41.54-23.185,62.471q1.932-10.144,2.9-20.287c.966-6.762,2.9-13.525,4.186-20.287,1.61-6.762,2.9-13.2,5.8-19.321,6.762-14.169,17.389-27.049,28.338-38A171.922,171.922,0,0,1,284.335,373.7C271.776,388.509,259.539,403.644,252.133,421.677ZM294.639,392.7c-2.576,15.135-7.406,29.948-12.881,44.438-5.8,15.135-12.559,29.626-23.829,41.862-6.762,7.728-14.813,14.169-22.863,20.287,5.8-6.118,11.271-12.237,16.745-18.677,8.694-10.627,17.389-21.575,22.863-34.134,10.627-23.829,13.847-50.235,23.185-74.386C296.571,378.849,295.605,385.933,294.639,392.7Zm-58.607,28.337c10.627-22.863,29.948-38.964,50.557-53.133-6.44,5.152-12.881,10.627-19,16.423-10.627,10.627-20.287,22.541-27.371,35.744-6.118,11.915-8.694,26.083-11.271,38.964-2.9,15.457-3.864,30.27-9.338,44.76C227.016,476.742,224.118,447.117,236.032,421.033Zm-8.05-128.807-3.864,9.66a171.107,171.107,0,0,0-2.9-40.574c-2.9-14.813-8.05-29.3-12.881-43.472-5.474-15.457-10.627-31.236-12.881-47.659-.322-1.288-.322-2.9-.644-4.186,3.864,12.559,9.338,24.473,15.135,36.388C222.507,229.433,229.592,261.635,227.982,292.226Zm-25.761-81.47c5.152,15.457,11.271,30.592,14.813,46.692a192.792,192.792,0,0,1,3.864,42.828,321.308,321.308,0,0,1-24.8-80.182,413.845,413.845,0,0,1-5.8-52.811,168.379,168.379,0,0,1,0-18.033c.322,5.8.644,11.271,1.288,17.067C192.882,181.453,197.068,196.265,202.22,210.756Zm-6.118,29.3A317,317,0,0,0,208.339,278.7c1.932,5.152,3.864,9.983,5.8,15.135-3.864-6.118-7.728-12.237-11.271-18.355-4.83-8.05-9.983-15.779-13.2-24.8-6.44-17.711-6.118-37.032-5.152-55.709.644-9.016,1.288-18.355,2.254-27.371.322,9.016.966,18.355,1.932,27.371C190.628,210.112,192.56,225.247,196.1,240.06ZM173.561,217.2c.644-17.389,6.762-34.134,9.016-51.2.966-7.084,2.254-14.169,3.22-21.253-.322,1.932-.644,4.186-.966,6.118-1.932,16.745-3.864,33.49-4.508,50.235-.644,17.389,0,35.744,6.44,52.167,3.864,9.339,9.66,18.033,14.813,26.727,4.186,6.762,8.05,13.525,12.559,19.965a4.577,4.577,0,0,0-1.932-.644C187.73,280.634,172.595,248.432,173.561,217.2Zm154.246,37.676c-16.423,16.745-31.88,34.134-48.3,50.879a388.86,388.86,0,0,1-59.573,50.879c16.423-18.677,33.168-37.354,51.2-54.743A618.206,618.206,0,0,1,327.807,254.873ZM280.47,309.937c18.033-18.677,35.422-38,53.777-56.353-5.474,9.016-10.3,18.355-16.423,26.727-6.44,8.694-13.525,17.067-20.287,25.439-6.762,8.05-13.525,16.745-22.219,23.185a218.414,218.414,0,0,1-28.337,17.711c-7.728,4.186-15.779,8.694-23.829,12.237C243.761,344.715,262.76,327.97,280.47,309.937ZM343.908,240.7ZM267.59,300.921c-15.779,15.457-30.592,31.88-45.4,48.3Q230.88,335.7,240.54,323.14c8.372-10.949,17.067-21.253,27.693-29.948,18.033-14.813,37.676-28.015,57-40.574A551.516,551.516,0,0,0,267.59,300.921Zm32.2,15.779a130.668,130.668,0,0,1-76,45.4,161.862,161.862,0,0,0,18.355-9.017,341.354,341.354,0,0,0,31.558-19c17.711-12.237,31.236-31.558,44.116-48.625,7.084-9.016,12.237-19,18.355-28.659-3.22,6.762-6.118,13.525-9.661,19.965A221.593,221.593,0,0,1,299.791,316.7Zm-38.964-27.371c10.949-8.694,22.541-16.423,34.134-24.151,8.694-5.8,18.033-10.627,27.371-15.457-8.05,5.474-16.1,11.271-23.829,16.745-20.609,14.169-39.93,28.659-55.709,48.3a369.947,369.947,0,0,0-30.27,43.15C223.8,331.512,238.286,307.361,260.827,289.328Zm-44.76-81.148c-6.44-14.813-14.169-28.981-18.677-44.438a160.328,160.328,0,0,1-4.83-24.151v-3.22c.644,2.9.966,5.8,1.61,8.694,3.22,15.135,9.338,28.659,16.1,42.828s13.525,28.659,17.711,43.794c4.186,14.813,8.05,31.558,5.8,47.014-.966,1.932-1.61,3.864-2.576,5.474,0-11.271-1.61-22.541-3.542-33.49C225.406,236.2,222.185,222.027,216.067,208.18Zm38.32-116.248c2.9,19.965,5.8,39.93,9.661,59.9a187.567,187.567,0,0,1,3.542,38c0,9.66.322,20.287-1.61,29.948C255.353,178.233,254.387,134.76,254.387,91.932ZM274.352,198.52c-.966,5.474-1.61,11.915-4.186,17.067a188.734,188.734,0,0,0,.966-23.185c0-13.2-.644-26.405-3.22-39.286-4.186-21.253-7.406-43.15-10.627-64.725,1.288,4.508,2.254,8.694,3.542,13.2,3.864,12.881,8.694,25.761,12.237,38.964a108.073,108.073,0,0,1,3.542,39.286A174.127,174.127,0,0,1,274.352,198.52ZM260.505,211.4c-8.694-20.287-15.457-41.862-14.491-64.081.644-13.2,2.9-26.727,5.152-39.93C251.489,142.489,252.777,177.589,260.505,211.4Zm53.133,2.9c26.727-14.169,51.523-30.914,73.742-51.523-6.44,9.983-12.559,19.965-20.931,28.338-12.237,12.881-28.659,18.033-45.082,24.151S288.521,227.5,272.1,233.941C286.267,227.5,300.114,221.383,313.638,214.3ZM267.59,232.331c9.338-9.016,19.965-16.745,30.592-24.151a243.394,243.394,0,0,1,43.15-23.507c9.983-4.186,19.321-8.05,28.659-13.2l6.762-3.864c-20.287,17.389-42.506,31.88-66.013,44.438C296.571,219.451,282.081,225.891,267.59,232.331ZM306.232,189.5c11.915-8.694,28.015-14.491,42.184-18.677,9.339-2.9,19.321-3.864,28.337-8.05,2.576-1.288,5.474-2.576,8.05-4.186-6.44,4.508-13.525,8.05-19.965,11.593-9.661,5.152-19.643,8.694-29.626,13.2-14.169,6.44-28.015,13.847-40.574,22.863A297.517,297.517,0,0,0,269.2,225.891c1.288-2.254,2.9-4.186,4.186-6.44.644-.644.966-1.61,1.61-2.254C285.623,208.18,294.961,197.876,306.232,189.5Zm-23.185-27.371a114.246,114.246,0,0,1-4.83,34.456c.644-3.542,1.288-7.406,1.61-10.949a115.247,115.247,0,0,0-1.61-39.286c-3.22-13.847-8.372-27.371-12.559-40.9-1.61-5.474-3.22-10.949-4.83-16.745,2.9,5.8,5.8,11.271,8.694,17.067C277.894,123.812,283.047,142.167,283.047,162.132ZM238.93,145.709c.966-13.2,4.83-25.761,7.406-38.964,1.61-7.406,2.9-14.813,4.186-22.219-1.61,21.575-7.728,43.15-8.05,65.047s6.44,42.828,14.813,62.793c-6.118-9.017-11.593-18.355-14.813-29.3A104.016,104.016,0,0,1,238.93,145.709ZM377.4,188.859c-10.3,14.491-24.8,24.8-41.218,31.236-17.067,6.44-35.744,8.694-53.455,13.525,14.491-5.8,28.982-10.949,43.472-16.423,15.779-6.118,31.236-11.271,43.15-24.151,8.694-9.017,15.135-19.965,22.219-30.27C387.38,171.792,383.194,180.487,377.4,188.859Z" transform="translate(1415.058 1251.824) rotate(-84)" fill="#1c8c93"/>
        <path id="Path_113" data-name="Path 113" d="M509.421,191.589c-12.06,9.38-25.012,17.866-38.858,23.672-12.506,4.913-26.8,6.253-39.305,10.72-18.759,6.253-39.305,13.846-55.831,25.459-10.273,7.593-19.206,16.079-28.586,25.012,8.486-12.06,17.419-24.119,26.8-35.285l.447-.447v-.447c14.293-12.06,28.586-24.119,40.2-38.412a117.149,117.149,0,0,0,23.226-48.685,204.6,204.6,0,0,0,4.02-57.171c-1.787-23.226-9.38-49.131,3.127-71.017,1.34-2.68-1.787-4.913-4.02-2.68C425.9,39.729,411.605,57.148,398.206,75.461c-12.06,16.526-23.226,33.945-29.925,53.6-12.506,36.179-11.166,75.93-.893,112.556-9.826,12.06-18.759,24.566-27.692,37.072,1.34-3.127,2.233-5.806,3.573-8.933,5.806-16.973,8.04-34.839,8.04-52.258,0-25.459-5.36-49.131-15.633-72.357C325.4,121.019,308.43,98.686,307.09,71.888c0-2.68-4.466-2.233-4.913,0-3.126,23.672-7.146,47.345-12.059,70.571-4.02,18.759-8.933,37.519-9.826,56.724-.893,17.419.893,35.285,6.7,51.811,4.466,13.4,20.8,41.4,27.946,52.566,3.106,10.552.4,10.017.4,10.017-.447.447-15.393,25.406-16.733,27.192-4.913,8.486-9.826,16.973-14.293,25.906.447-16.526-3.573-33.945-7.593-49.578-5.36-20.992-13.846-41.092-23.226-60.744-9.826-20.993-19.653-40.645-25.012-63.424-4.02-16.973-5.36-34.392-8.933-51.365a2.506,2.506,0,0,0-4.913,0c-4.02,28.586-8.933,56.724-13.4,85.31-3.573,24.566-12.506,48.685-11.613,73.7,1.34,39.752,18.19,77.349,48.563,103.254-.483.023,6.256,5.39,13.524,9.979,2.794,1.768,6.787,5.336,8.727,4.948-7.146,22.332-23.021,79.237-24.808,102.016,0,.447-.447.893-.447,1.34V523a348.945,348.945,0,0,0-.893,43.325,117.708,117.708,0,0,0,.893,12.506c-14.293-30.372-31.265-59.851-51.365-86.65-11.613-15.633-23.672-29.925-30.372-48.685s-8.933-38.858-11.613-58.511a2.338,2.338,0,0,0-4.466-.447C132.45,397.048,127.983,410,125.3,423.4c-3.127,14.293-4.02,29.479-4.913,43.772-1.787,25.906-2.68,56.724,10.273,80.4,12.06,22.779,31.265,42.878,50.025,60.744,9.826,9.38,58.946,42.87,60.841,46.317,2.891,5.288,3.659,17.007,4.817,13.534.893,5.36,2.233,10.72,3.126,16.079,8.933,41.985,21.439,83.97,41.985,121.488a2.5,2.5,0,0,0,4.466-2.233C279.4,772.68,267.784,739.181,259.3,704.789c.447,0,.447-.447.893-.447h0c18.313-11.613,36.179-24.566,51.365-40.2,15.633-16.079,25.906-34.392,34.392-55.385a392.9,392.9,0,0,0,20.1-63.871c4.02-19.653,4.467-40.645,12.506-59.4a1.964,1.964,0,0,0-.447-2.233,1.919,1.919,0,0,0-3.127-.893c-36.625,23.226-74.59,48.238-95.136,87.543-18.759,36.179-15.186,77.717-24.119,116.575-7.146-34.392-11.613-69.231-14.739-103.623-.893-12.953-1.787-25.906-1.34-38.858.893,2.233,1.48-26.2,1.48-26.2s2.142-8.563,7.185-12.752c6.345-5.262,18.487-4.3,14.561-4.822,41.092-7.593,78.61-28.139,106.3-60.3A327.731,327.731,0,0,0,408.032,384.1c12.059-21.886,20.546-45.112,33.052-66.551.893-1.787-.893-4.913-3.127-3.573-25.012,15.186-51.811,25.906-76.377,41.985-16.973,11.166-33.945,22.332-50.025,35.285-30.372,24.119-50.025,56.278-65.211,91.563,1.34-6.253,3.127-12.506,4.913-18.759a536.56,536.56,0,0,1,22.779-63.424c.447-.447.447-.893.893-1.34h0l8.04-17.419c0-.447.447-.447.447-.893,4.466-9.826,9.38-19.206,14.739-28.585a143.234,143.234,0,0,1,8.486-13.846c36.179-23.672,82.63-21.886,121.489-38.858,21.439-9.38,39.752-23.672,53.151-42.432,13.846-19.206,20.546-41.538,32.159-61.638C514.335,192.483,511.655,189.8,509.421,191.589Zm-111.662-.447a248.21,248.21,0,0,0,15.186-47.791c6.7-28.586,9.826-58.064,17.419-86.2-4.913,34.392-4.02,70.124-13.846,103.623-4.913,16.526-12.06,33.052-22.779,46.9l-12.06,14.739C387.04,212.582,392.846,202.309,397.759,191.143ZM374.98,224.195c4.466-26.8,8.486-54.045,16.526-79.95,7.593-25.906,18.759-50.918,31.265-75.037-4.913,23.226-8.04,47.345-13.4,70.571a302.365,302.365,0,0,1-15.186,48.238C388.38,200.969,381.68,212.582,374.98,224.195Zm12.059-81.737c-7.593,25.012-11.613,51.365-16.079,77.27a312.868,312.868,0,0,1,.893-35.285c1.34-17.419,2.68-36.625,9.38-53.151S397.759,99.133,407.139,83.5l16.079-25.459C408.479,85.734,395.526,113.426,387.04,142.458Zm48.238-2.68c-3.127,20.546-9.38,39.752-22.332,56.278a191.933,191.933,0,0,1-24.566,25.906c3.126-4.02,6.7-8.04,9.826-12.06,10.273-12.953,16.973-29.032,22.332-44.665,9.826-31.712,9.826-65.211,13.846-97.816.447,2.68.447,5.806.893,8.486C437.064,97.347,438.4,118.339,435.278,139.778Zm-62.084-12.06c7.146-19.206,18.313-36.179,30.372-52.258,4.913-6.7,10.273-13.4,15.633-20.546-6.253,9.38-12.506,19.206-18.313,28.586-9.38,15.633-19.206,31.712-25.906,48.685-5.806,16.079-7.593,34.392-8.486,51.811-.893,9.826-.893,20.1-.893,29.925C361.581,185.336,363.367,155.411,373.194,127.719ZM239.646,621.266c0,1.34.447,2.68.447,3.573a129.953,129.953,0,0,0-11.166-18.759c-7.593-10.72-14.739-21.886-22.332-33.052-16.526-24.566-33.5-48.238-45.558-75.484-6.253-13.846-10.72-28.586-14.293-43.772.893,2.68,1.787,4.913,2.68,7.593,8.04,20.1,21.886,37.518,33.5,55.831L219.1,574.814c8.486,13.4,17.866,28.586,19.653,45.112A5.527,5.527,0,0,0,239.646,621.266ZM154.782,495.311C165.5,520.77,180.688,544,196.321,566.775c7.593,11.166,14.739,22.779,22.779,33.945,7.593,11.166,16.079,21.886,20.1,34.839-14.739-17.419-29.032-35.285-43.772-52.7-26.8-31.712-48.685-67-53.151-109.429-.893-9.826-1.34-19.653-1.787-29.479A224.694,224.694,0,0,0,154.782,495.311Zm-2.233,32.605c14.739,31.265,38.412,56.278,59.851,83.077,6.7,8.486,13.846,16.526,20.546,25.012-1.787-1.34-3.127-2.233-4.913-3.573A397.765,397.765,0,0,1,192.3,601.167c-29.925-30.372-53.6-67.891-59.4-110.769a165.11,165.11,0,0,1,0-41.985c1.34-8.486,2.233-17.419,3.127-26.352C134.683,457.792,136.916,494.417,152.549,527.916Zm22.779-40.645c25.012,32.159,44.665,67.444,61.191,104.069a8.706,8.706,0,0,0,.447,3.573c-2.68-5.36-5.806-10.719-8.486-15.633-12.506-19.653-25.012-39.305-37.072-59.4-11.166-17.866-25.012-35.285-33.945-54.044a115.732,115.732,0,0,1-8.04-22.779C154.782,460.025,164.608,473.425,175.328,487.271ZM136.47,547.122c-13.846-24.119-12.506-55.385-10.72-81.737.893-12.953,1.787-26.352,4.02-39.752.893-4.913,2.233-9.38,3.127-14.293-.893,8.486-1.787,17.419-3.127,25.906-2.233,12.953-3.573,25.906-2.68,38.858.893,23.226,7.146,46,17.419,67,16.973,34.392,43.772,62.531,72.8,86.2,7.593,5.806,16.079,11.166,23.226,17.866a328.749,328.749,0,0,1-52.7-40.2C168.628,590,149.869,569.9,136.47,547.122Zm171.96,81.29c12.953-24.566,21.886-50.918,32.605-76.824a407.571,407.571,0,0,1,19.206-39.752c-10.72,30.372-15.633,62.531-27.692,92.456-7.593,18.313-19.652,33.945-31.712,49.131a464.934,464.934,0,0,1-31.712,34.839C283.417,669.057,296.817,649.851,308.429,628.412ZM270.911,677.99c12.506-32.159,23.226-64.764,35.732-96.923,11.166-28.139,30.372-50.471,50.025-72.8a400.008,400.008,0,0,0-18.313,36.625c-11.166,25.906-19.653,52.7-32.605,77.717C295.923,642.258,283.417,660.571,270.911,677.99ZM303.516,576.6c-11.613,28.586-21.439,57.618-32.159,86.65q2.68-14.069,4.02-28.139c1.34-9.38,4.02-18.759,5.806-28.139,2.233-9.38,4.02-18.313,8.04-26.8,9.38-19.653,24.119-37.518,39.305-52.7a238.458,238.458,0,0,1,19.653-17.419C330.762,530.6,313.789,551.589,303.516,576.6Zm58.958-40.2c-3.573,20.992-10.273,41.538-17.866,61.638-8.04,20.992-17.419,41.092-33.052,58.064-9.38,10.72-20.546,19.653-31.712,28.139,8.04-8.486,15.633-16.973,23.226-25.906,12.06-14.739,24.119-29.925,31.712-47.345,14.739-33.052,19.206-69.677,32.159-103.176C365.154,517.2,363.814,527.023,362.474,536.4Zm-81.29,39.305c14.739-31.712,41.538-54.045,70.124-73.7-8.933,7.146-17.866,14.739-26.352,22.779-14.739,14.739-28.139,31.265-37.965,49.578-8.486,16.526-12.06,36.179-15.633,54.045C267.338,649.851,266,670.4,258.4,690.5,268.678,652.978,264.658,611.886,281.184,575.708Zm-11.166-178.66-5.36,13.4a237.332,237.332,0,0,0-4.02-56.278c-4.02-20.546-11.166-40.645-17.866-60.3-7.593-21.439-14.739-43.325-17.866-66.1-.447-1.787-.447-4.02-.893-5.806,5.36,17.419,12.953,33.945,20.992,50.471C262.425,309.951,272.251,354.616,270.018,397.048Zm-35.732-113c7.146,21.439,15.633,42.432,20.546,64.764a267.408,267.408,0,0,1,5.36,59.4C244.112,372.929,232.052,334.964,225.8,297c-4.02-24.119-7.146-48.685-8.04-73.25a233.555,233.555,0,0,1,0-25.012c.447,8.04.893,15.633,1.787,23.672C221.333,243.4,227.139,263.947,234.286,284.046ZM225.8,324.691a439.687,439.687,0,0,0,16.973,53.6c2.68,7.146,5.36,13.846,8.04,20.992-5.36-8.486-10.72-16.973-15.633-25.459-6.7-11.166-13.846-21.886-18.313-34.392-8.933-24.566-8.486-51.365-7.146-77.27.893-12.506,1.787-25.459,3.127-37.965.447,12.506,1.34,25.459,2.68,37.965C218.206,283.153,220.886,304.145,225.8,324.691Zm-31.265-31.712c.893-24.119,9.38-47.345,12.506-71.017,1.34-9.826,3.127-19.653,4.467-29.479-.447,2.68-.893,5.806-1.34,8.486-2.68,23.226-5.36,46.451-6.253,69.677-.893,24.119,0,49.578,8.933,72.357,5.36,12.953,13.4,25.012,20.546,37.072,5.806,9.38,11.166,18.759,17.419,27.692a6.348,6.348,0,0,0-2.68-.893C214.187,380.969,193.194,336.3,194.534,292.979Zm213.945,52.258c-22.779,23.226-44.218,47.345-67,70.571-25.459,26.352-52.7,50.025-82.63,70.571,22.779-25.906,46-51.811,71.017-75.93C354.434,387.222,380.787,365.783,408.479,345.237Zm-65.658,76.377c25.012-25.906,49.131-52.7,74.59-78.164-7.593,12.506-14.293,25.459-22.779,37.072-8.933,12.06-18.759,23.672-28.139,35.285-9.38,11.166-18.759,23.226-30.819,32.159a302.947,302.947,0,0,1-39.305,24.566c-10.72,5.806-21.886,12.06-33.052,16.973C291.9,469.852,318.256,446.626,342.821,421.614Zm87.99-96.03ZM324.955,409.107c-21.886,21.439-42.432,44.218-62.978,67q12.059-18.759,25.459-36.179c11.613-15.186,23.672-29.479,38.412-41.538,25.012-20.546,52.258-38.858,79.057-56.278A764.974,764.974,0,0,0,324.955,409.107Zm44.665,21.886a181.241,181.241,0,0,1-105.409,62.978,224.507,224.507,0,0,0,25.459-12.506,473.462,473.462,0,0,0,43.772-26.352c24.566-16.973,43.325-43.772,61.191-67.444,9.826-12.506,16.973-26.352,25.459-39.752-4.466,9.38-8.486,18.759-13.4,27.692A307.358,307.358,0,0,1,369.62,430.993Zm-54.044-37.965c15.186-12.06,31.265-22.779,47.345-33.5,12.06-8.04,25.012-14.739,37.965-21.439-11.166,7.593-22.332,15.633-33.052,23.226-28.586,19.653-55.384,39.752-77.27,67a513.131,513.131,0,0,0-41.985,59.851C264.211,451.539,284.31,418.04,315.576,393.028ZM253.492,280.473c-8.933-20.546-19.653-40.2-25.906-61.638a222.38,222.38,0,0,1-6.7-33.5V180.87c.893,4.02,1.34,8.04,2.233,12.06,4.466,20.993,12.953,39.752,22.332,59.4s18.759,39.752,24.566,60.744c5.807,20.546,11.166,43.772,8.04,65.211-1.34,2.68-2.233,5.36-3.573,7.593,0-15.633-2.233-31.265-4.913-46.452C266.444,319.331,261.978,299.678,253.492,280.473Zm53.151-161.24c4.02,27.692,8.04,55.384,13.4,83.077a260.161,260.161,0,0,1,4.913,52.7c0,13.4.447,28.139-2.233,41.538C307.983,238.934,306.643,178.637,306.643,119.232Zm27.692,147.841c-1.34,7.593-2.233,16.526-5.806,23.672,1.34-10.72,1.34-21.886,1.34-32.159,0-18.313-.893-36.625-4.466-54.491-5.806-29.479-10.273-59.851-14.739-89.776,1.787,6.253,3.127,12.06,4.913,18.313,5.36,17.866,12.059,35.732,16.973,54.045a149.9,149.9,0,0,1,4.913,54.491A241.532,241.532,0,0,1,334.335,267.073Zm-19.206,17.866c-12.06-28.139-21.439-58.064-20.1-88.883.893-18.313,4.02-37.072,7.146-55.384C302.623,189.356,304.41,238.041,315.129,284.939Zm73.7,4.02C425.9,269.306,460.29,246.081,491.109,217.5c-8.933,13.846-17.419,27.692-29.032,39.305-16.973,17.866-39.752,25.012-62.531,33.5s-45.558,16.973-68.337,25.906C350.861,307.272,370.067,298.785,388.826,288.959Zm-63.871,25.012c12.953-12.506,27.692-23.226,42.432-33.5a337.6,337.6,0,0,1,59.851-32.605c13.846-5.806,26.8-11.166,39.752-18.313l9.38-5.36c-28.139,24.119-58.958,44.218-91.563,61.638C365.154,296.105,345.055,305.038,324.955,313.971Zm53.6-59.4c16.526-12.059,38.858-20.1,58.511-25.906,12.953-4.02,26.8-5.36,39.305-11.166,3.573-1.787,7.593-3.573,11.166-5.806-8.933,6.253-18.759,11.166-27.692,16.079-13.4,7.146-27.246,12.06-41.092,18.313-19.653,8.933-38.858,19.206-56.278,31.712a412.663,412.663,0,0,0-35.285,27.246c1.787-3.127,4.02-5.806,5.806-8.933.893-.893,1.34-2.233,2.233-3.127C349.968,280.473,362.921,266.18,378.553,254.567ZM346.395,216.6c0,16.079-1.787,32.159-6.7,47.791.893-4.913,1.787-10.273,2.233-15.186a159.853,159.853,0,0,0-2.233-54.491c-4.466-19.206-11.613-37.965-17.419-56.724-2.233-7.593-4.467-15.186-6.7-23.226,4.02,8.04,8.04,15.633,12.059,23.672C339.248,163.451,346.395,188.91,346.395,216.6ZM285.2,193.823c1.34-18.313,6.7-35.732,10.273-54.045,2.233-10.273,4.02-20.546,5.806-30.819-2.233,29.925-10.72,59.851-11.166,90.223s8.933,59.4,20.546,87.1c-8.486-12.506-16.079-25.459-20.546-40.645C285.2,229.108,283.864,211.242,285.2,193.823Zm192.059,59.851c-14.293,20.1-34.392,34.392-57.171,43.325-23.672,8.933-49.578,12.06-74.144,18.759,20.1-8.04,40.2-15.186,60.3-22.779,21.886-8.486,43.325-15.633,59.851-33.5,12.06-12.506,20.993-27.692,30.819-41.985C491.109,230,485.3,242.061,477.263,253.674Z" transform="matrix(0.883, -0.469, 0.469, 0.883, 1384.358, 548.036)" fill="#0e898b"/>
        <path id="Path_112" data-name="Path 112" d="M413.22,149.613c-9.085,7.066-18.843,13.46-29.274,17.834-9.422,3.7-20.189,4.711-29.611,8.076-14.133,4.711-29.611,10.431-42.061,19.18-7.739,5.72-14.469,12.114-21.535,18.843,6.393-9.085,13.123-18.17,20.189-26.583l.337-.337v-.336c10.768-9.085,21.535-18.17,30.284-28.938a88.256,88.256,0,0,0,17.5-36.677A154.137,154.137,0,0,0,362.074,77.6c-1.346-17.5-7.066-37.014,2.355-53.5,1.009-2.019-1.346-3.7-3.028-2.019C350.3,35.207,339.53,48.33,329.435,62.126c-9.085,12.45-17.5,25.573-22.545,40.379-9.422,27.256-8.412,57.2-.673,84.8-7.4,9.085-14.133,18.507-20.862,27.929,1.009-2.355,1.682-4.374,2.692-6.73a121.711,121.711,0,0,0,6.057-39.369,132.384,132.384,0,0,0-11.777-54.511c-7.739-18.17-20.526-34.995-21.535-55.184,0-2.019-3.365-1.682-3.7,0C254.735,77.268,251.706,95.1,248,112.6c-3.028,14.133-6.73,28.265-7.4,42.734-.673,13.123.673,26.583,5.047,39.033,3.365,10.095,15.67,31.189,21.054,39.6,2.34,7.949.3,7.547.3,7.547-.337.336-11.6,19.14-12.606,20.486-3.7,6.393-7.4,12.787-10.768,19.516.337-12.45-2.692-25.573-5.72-37.35-4.038-15.815-10.431-30.957-17.5-45.762-7.4-15.815-14.805-30.62-18.843-47.781-3.028-12.787-4.038-25.91-6.73-38.7a1.888,1.888,0,0,0-3.7,0c-3.028,21.535-6.73,42.734-10.095,64.269-2.692,18.507-9.422,36.677-8.749,55.521,1.01,29.947,13.7,58.272,36.585,77.788-.364.017,4.713,4.061,10.188,7.518,2.105,1.332,5.113,4.02,6.574,3.728-5.384,16.824-17.343,59.694-18.689,76.855,0,.336-.336.673-.336,1.009v.673a262.882,262.882,0,0,0-.673,32.639,88.677,88.677,0,0,0,.673,9.422,374.747,374.747,0,0,0-38.7-65.279c-8.749-11.777-17.834-22.545-22.881-36.677s-6.73-29.275-8.749-44.08a1.761,1.761,0,0,0-3.365-.336,173.719,173.719,0,0,0-9.085,29.274c-2.355,10.768-3.028,22.208-3.7,32.976-1.346,19.516-2.019,42.734,7.739,60.568,9.085,17.161,23.554,32.3,37.687,45.762,7.4,7.066,44.408,32.3,45.835,34.894,2.178,3.984,2.757,12.812,3.629,10.2.673,4.038,1.682,8.076,2.355,12.114,6.73,31.63,16.151,63.26,31.63,91.525a1.883,1.883,0,0,0,3.365-1.682c-12.45-23.218-21.2-48.454-27.592-74.364.337,0,.337-.337.673-.337h0c13.8-8.749,27.256-18.507,38.7-30.284,11.777-12.114,19.516-25.91,25.91-41.725a296,296,0,0,0,15.142-48.118c3.028-14.805,3.365-30.62,9.422-44.753a1.48,1.48,0,0,0-.337-1.682,1.446,1.446,0,0,0-2.355-.673c-27.592,17.5-56.194,36.341-71.672,65.952-14.132,27.256-11.441,58.549-18.17,87.824a691.793,691.793,0,0,1-11.1-78.065,283.7,283.7,0,0,1-1.009-29.274c.673,1.682,1.115-19.737,1.115-19.737s1.614-6.451,5.413-9.607c4.78-3.964,13.928-3.238,10.97-3.632,30.957-5.72,59.222-21.2,80.084-45.426a246.9,246.9,0,0,0,29.275-42.061c9.085-16.488,15.478-33.985,24.9-50.137.673-1.346-.673-3.7-2.355-2.692-18.843,11.441-39.033,19.516-57.54,31.63-12.787,8.412-25.573,16.824-37.687,26.583-22.881,18.17-37.687,42.4-49.127,68.98,1.009-4.711,2.355-9.422,3.7-14.133a404.225,404.225,0,0,1,17.161-47.781c.337-.336.337-.673.673-1.009h0l6.057-13.123c0-.336.337-.336.337-.673,3.365-7.4,7.066-14.469,11.1-21.535a107.918,107.918,0,0,1,6.393-10.431c27.256-17.834,62.25-16.488,91.525-29.274a95.824,95.824,0,0,0,40.042-31.966c10.431-14.469,15.478-31.293,24.227-46.435C416.922,150.286,414.9,148.267,413.22,149.613Zm-84.122-.336a186.994,186.994,0,0,0,11.441-36c5.047-21.535,7.4-43.743,13.123-64.942-3.7,25.91-3.028,52.829-10.431,78.065-3.7,12.45-9.085,24.9-17.161,35.331l-9.085,11.1C321.023,165.428,325.4,157.689,329.1,149.277Zm-17.161,24.9c3.365-20.189,6.393-40.715,12.45-60.231,5.72-19.516,14.133-38.36,23.554-56.53-3.7,17.5-6.057,35.668-10.095,53.165a227.79,227.79,0,0,1-11.441,36.341A297.422,297.422,0,0,1,311.938,174.177Zm9.085-61.577c-5.72,18.843-8.749,38.7-12.114,58.212a235.7,235.7,0,0,1,.673-26.583c1.009-13.123,2.019-27.592,7.066-40.042s12.45-24.227,19.516-36L348.278,49C337.174,69.865,327.416,90.728,321.023,112.6Zm36.341-2.019c-2.355,15.478-7.066,29.947-16.824,42.4a144.6,144.6,0,0,1-18.507,19.516c2.355-3.028,5.047-6.057,7.4-9.085,7.739-9.758,12.787-21.872,16.824-33.649,7.4-23.891,7.4-49.127,10.431-73.691.336,2.019.336,4.374.673,6.393C358.709,78.614,359.719,94.429,357.363,110.58ZM310.592,101.5c5.384-14.469,13.8-27.256,22.881-39.369,3.7-5.047,7.739-10.095,11.777-15.478-4.711,7.066-9.422,14.469-13.8,21.535-7.066,11.777-14.469,23.891-19.516,36.677-4.374,12.114-5.72,25.91-6.393,39.033-.673,7.4-.673,15.142-.673,22.545C301.843,144.9,303.189,122.358,310.592,101.5Zm-100.61,371.82c0,1.009.337,2.019.337,2.692a97.9,97.9,0,0,0-8.412-14.133c-5.72-8.076-11.1-16.488-16.824-24.9-12.45-18.507-25.237-36.341-34.322-56.867a180.072,180.072,0,0,1-10.768-32.976c.673,2.019,1.346,3.7,2.019,5.72,6.057,15.142,16.488,28.265,25.237,42.061L194.5,438.32c6.393,10.095,13.46,21.535,14.805,33.985A4.164,4.164,0,0,0,209.981,473.315Zm-63.933-94.89c8.076,19.18,19.516,36.677,31.293,53.838,5.72,8.412,11.1,17.161,17.161,25.573,5.72,8.412,12.114,16.488,15.142,26.246-11.1-13.123-21.872-26.583-32.976-39.706-20.189-23.891-36.677-50.473-40.042-82.44-.673-7.4-1.009-14.806-1.346-22.208A169.277,169.277,0,0,0,146.049,378.425Zm-1.682,24.564c11.1,23.554,28.938,42.4,45.089,62.587,5.047,6.393,10.431,12.45,15.478,18.843-1.346-1.009-2.355-1.682-3.7-2.692a299.659,299.659,0,0,1-26.919-23.554c-22.545-22.881-40.379-51.146-44.753-83.449a124.388,124.388,0,0,1,0-31.63c1.009-6.393,1.682-13.123,2.355-19.853C130.907,350.16,132.589,377.752,144.366,402.989Zm17.161-30.62c18.843,24.227,33.649,50.81,46.1,78.4a6.559,6.559,0,0,0,.337,2.692c-2.019-4.038-4.374-8.076-6.393-11.777-9.422-14.805-18.843-29.611-27.929-44.753-8.412-13.46-18.843-26.583-25.573-40.715a87.188,87.188,0,0,1-6.057-17.161C146.049,351.843,153.451,361.937,161.527,372.368Zm-29.274,45.089c-10.431-18.17-9.422-41.725-8.076-61.577.673-9.758,1.346-19.853,3.028-29.947.673-3.7,1.682-7.066,2.355-10.768-.673,6.393-1.346,13.123-2.355,19.516-1.682,9.758-2.692,19.516-2.019,29.274a126.2,126.2,0,0,0,13.123,50.473c12.787,25.91,32.976,47.108,54.848,64.942,5.72,4.374,12.114,8.412,17.5,13.46a247.668,247.668,0,0,1-39.706-30.284C156.48,449.761,142.347,434.619,132.253,417.458ZM261.8,478.7c9.758-18.507,16.488-38.36,24.564-57.876a307.043,307.043,0,0,1,14.469-29.947c-8.076,22.881-11.777,47.108-20.862,69.653-5.72,13.8-14.805,25.573-23.891,37.014a350.267,350.267,0,0,1-23.891,26.246C242.957,509.319,253.052,494.85,261.8,478.7Zm-28.265,37.35c9.422-24.227,17.5-48.791,26.919-73.018,8.412-21.2,22.881-38.023,37.687-54.848a301.354,301.354,0,0,0-13.8,27.592c-8.412,19.516-14.805,39.706-24.564,58.549C252.379,489.13,242.957,502.926,233.536,516.049ZM258.1,439.666c-8.749,21.535-16.151,43.407-24.227,65.279q2.019-10.6,3.028-21.2c1.009-7.066,3.028-14.133,4.374-21.2,1.682-7.066,3.028-13.8,6.057-20.189,7.066-14.805,18.17-28.265,29.611-39.706a179.651,179.651,0,0,1,14.805-13.123C278.625,405.008,265.839,420.823,258.1,439.666Zm44.416-30.284c-2.692,15.815-7.739,31.293-13.46,46.435-6.057,15.815-13.123,30.957-24.9,43.743-7.066,8.076-15.479,14.806-23.891,21.2,6.057-6.393,11.777-12.787,17.5-19.516,9.085-11.1,18.17-22.545,23.891-35.668,11.1-24.9,14.469-52.492,24.227-77.729C304.535,394.913,303.525,402.316,302.516,409.382Zm-61.241,29.611c11.1-23.891,31.293-40.715,52.829-55.521-6.73,5.384-13.46,11.1-19.853,17.161-11.1,11.1-21.2,23.554-28.6,37.35-6.393,12.45-9.085,27.256-11.777,40.715-3.028,16.151-4.038,31.63-9.758,46.772C231.853,497.206,228.825,466.249,241.275,438.993Zm-8.412-134.6-4.038,10.095a178.8,178.8,0,0,0-3.028-42.4c-3.028-15.478-8.412-30.62-13.46-45.426-5.72-16.151-11.1-32.639-13.46-49.8-.337-1.346-.337-3.028-.673-4.374,4.038,13.123,9.758,25.573,15.815,38.023C227.142,238.783,234.545,272.431,232.863,304.4Zm-26.919-85.132c5.384,16.151,11.777,31.966,15.478,48.791a201.456,201.456,0,0,1,4.038,44.753,335.748,335.748,0,0,1-25.91-83.786,432.443,432.443,0,0,1-6.057-55.184,175.951,175.951,0,0,1,0-18.843c.336,6.057.673,11.777,1.346,17.834C196.185,188.646,200.56,204.124,205.944,219.266Zm-6.393,30.62a331.246,331.246,0,0,0,12.787,40.379c2.019,5.384,4.038,10.431,6.057,15.815-4.038-6.393-8.076-12.787-11.777-19.18-5.047-8.412-10.431-16.488-13.8-25.91-6.73-18.507-6.393-38.7-5.384-58.213.673-9.422,1.346-19.18,2.355-28.6.337,9.422,1.01,19.18,2.019,28.6C193.83,218.593,195.849,234.408,199.55,249.887ZM176,226c.673-18.17,7.066-35.668,9.422-53.5,1.01-7.4,2.355-14.805,3.365-22.208-.337,2.019-.673,4.374-1.009,6.393-2.019,17.5-4.038,34.995-4.711,52.492-.673,18.17,0,37.35,6.73,54.511,4.038,9.758,10.095,18.843,15.478,27.929,4.374,7.066,8.412,14.132,13.123,20.862a4.782,4.782,0,0,0-2.019-.673C190.8,292.284,174.987,258.635,176,226Zm161.178,39.369c-17.161,17.5-33.312,35.668-50.473,53.165a406.336,406.336,0,0,1-62.25,53.165c17.161-19.516,34.658-39.033,53.5-57.2A645.982,645.982,0,0,1,337.174,265.365ZM287.71,322.9c18.843-19.516,37.014-39.706,56.194-58.885-5.72,9.422-10.768,19.18-17.161,27.928-6.73,9.085-14.132,17.834-21.2,26.583-7.066,8.412-14.132,17.5-23.218,24.227a228.23,228.23,0,0,1-29.611,18.507c-8.076,4.374-16.488,9.085-24.9,12.787C249.351,359.245,269.2,341.748,287.71,322.9ZM354,250.56Zm-79.748,62.923c-16.488,16.151-31.966,33.312-47.445,50.473q9.085-14.133,19.18-27.256c8.749-11.441,17.834-22.208,28.938-31.293,18.843-15.478,39.369-29.274,59.558-42.4A576.3,576.3,0,0,0,274.251,313.483ZM307.9,329.971a136.54,136.54,0,0,1-79.411,47.445,169.138,169.138,0,0,0,19.18-9.422,356.7,356.7,0,0,0,32.976-19.853c18.507-12.787,32.639-32.976,46.1-50.81,7.4-9.422,12.787-19.853,19.18-29.947-3.365,7.066-6.393,14.133-10.095,20.862A231.554,231.554,0,0,1,307.9,329.971Zm-40.715-28.6c11.441-9.085,23.554-17.161,35.668-25.237,9.085-6.057,18.843-11.1,28.6-16.151-8.412,5.72-16.824,11.777-24.9,17.5-21.535,14.806-41.725,29.947-58.213,50.473a386.571,386.571,0,0,0-31.63,45.089C228.488,345.449,243.63,320.213,267.185,301.369Zm-46.772-84.8c-6.73-15.478-14.805-30.284-19.516-46.435a167.532,167.532,0,0,1-5.047-25.237v-3.365c.673,3.028,1.009,6.057,1.682,9.085,3.365,15.815,9.758,29.947,16.824,44.753s14.133,29.947,18.507,45.762c4.374,15.478,8.412,32.976,6.057,49.127-1.009,2.019-1.682,4.038-2.692,5.72,0-11.777-1.682-23.554-3.7-34.995C230.171,245.849,226.806,231.043,220.413,216.574ZM260.455,95.1c3.028,20.862,6.057,41.725,10.095,62.587a196,196,0,0,1,3.7,39.706c0,10.095.337,21.2-1.682,31.293C261.464,185.281,260.455,139.855,260.455,95.1ZM281.317,206.48c-1.009,5.72-1.682,12.45-4.374,17.834a197.214,197.214,0,0,0,1.009-24.227c0-13.8-.673-27.592-3.365-41.052-4.374-22.208-7.739-45.089-11.1-67.634,1.346,4.711,2.355,9.085,3.7,13.8,4.038,13.46,9.085,26.919,12.787,40.715a112.93,112.93,0,0,1,3.7,41.052A181.956,181.956,0,0,1,281.317,206.48Zm-14.469,13.46c-9.085-21.2-16.151-43.744-15.142-66.961.673-13.8,3.028-27.929,5.384-41.725C257.426,147.931,258.772,184.608,266.848,219.939Zm55.521,3.028c27.929-14.805,53.838-32.3,77.056-53.838-6.73,10.431-13.123,20.862-21.872,29.611-12.787,13.46-29.947,18.843-47.108,25.237s-34.322,12.787-51.483,19.516C293.767,236.764,308.236,230.37,322.369,222.968Zm-48.118,18.843c9.758-9.422,20.862-17.5,31.966-25.237a254.332,254.332,0,0,1,45.089-24.564c10.431-4.374,20.189-8.412,29.947-13.8l7.066-4.038c-21.2,18.17-44.416,33.312-68.98,46.435C304.535,228.351,289.393,235.081,274.251,241.811Zm40.379-44.753c12.45-9.085,29.274-15.142,44.08-19.516,9.758-3.028,20.189-4.038,29.611-8.412,2.692-1.346,5.72-2.692,8.412-4.374-6.73,4.711-14.133,8.412-20.862,12.114-10.095,5.384-20.526,9.085-30.957,13.8-14.805,6.73-29.274,14.469-42.4,23.891a310.89,310.89,0,0,0-26.583,20.526c1.346-2.355,3.028-4.374,4.374-6.73.673-.673,1.009-1.682,1.682-2.355C293.094,216.574,302.852,205.807,314.629,197.058Zm-24.227-28.6a119.381,119.381,0,0,1-5.047,36c.673-3.7,1.346-7.739,1.682-11.441a120.426,120.426,0,0,0-1.682-41.052c-3.365-14.469-8.749-28.6-13.123-42.734-1.682-5.72-3.365-11.441-5.047-17.5,3.028,6.057,6.057,11.777,9.085,17.834C285.018,128.414,290.4,147.594,290.4,168.456ZM244.3,151.3c1.01-13.8,5.047-26.919,7.739-40.715,1.682-7.739,3.028-15.478,4.374-23.218-1.682,22.545-8.076,45.089-8.412,67.971s6.73,44.753,15.479,65.615c-6.393-9.422-12.114-19.18-15.479-30.62A108.69,108.69,0,0,1,244.3,151.3Zm144.69,45.089c-10.768,15.142-25.91,25.91-43.07,32.639-17.834,6.73-37.35,9.085-55.857,14.132C305.208,237.1,320.35,231.716,335.492,226c16.488-6.393,32.639-11.777,45.089-25.237,9.085-9.422,15.815-20.862,23.218-31.63C399.425,178.551,395.05,187.636,388.993,196.385Z" transform="translate(102.698 608.764) rotate(41)" fill="#1c8c93"/>
        <path id="Path_135" data-name="Path 135" d="M469.918,184.435c-10.838,8.985-22.479,17.115-34.923,22.677-11.24,4.707-24.085,5.99-35.324,10.269-16.859,5.99-35.324,13.264-50.177,24.389-9.233,7.274-17.261,15.4-25.69,23.961,7.627-11.553,15.655-23.105,24.085-33.8l.4-.428v-.428c12.845-11.553,25.69-23.105,36.127-36.8a115.531,115.531,0,0,0,20.873-46.638A208.61,208.61,0,0,0,408.9,92.87c-1.606-22.249-8.43-47.066,2.81-68.032,1.2-2.567-1.606-4.707-3.613-2.567-13.247,16.687-26.092,33.374-38.134,50.917-10.838,15.831-20.873,32.518-26.895,51.345-11.24,34.658-10.035,72.739-.8,107.824-8.831,11.553-16.859,23.533-24.888,35.514,1.2-3,2.007-5.562,3.211-8.557,5.218-16.259,7.225-33.374,7.225-50.061a177.776,177.776,0,0,0-14.049-69.316c-9.233-23.105-24.486-44.5-25.69-70.171,0-2.567-4.014-2.139-4.416,0-2.81,22.677-6.423,45.355-10.838,67.6-3.613,17.971-8.028,35.941-8.831,54.34-.8,16.687.8,33.8,6.021,49.633,4.014,12.836,18.693,39.66,25.116,50.357,2.791,10.108.359,9.6.359,9.6-.4.428-13.834,24.338-15.038,26.049-4.416,8.13-8.831,16.259-12.845,24.817.4-15.831-3.211-32.518-6.824-47.494-4.817-20.11-12.444-39.364-20.873-58.191-8.831-20.11-17.662-38.937-22.479-60.758-3.613-16.259-4.817-32.946-8.028-49.205a2.228,2.228,0,0,0-4.416,0c-3.613,27.384-8.028,54.34-12.042,81.724-3.211,23.533-11.24,46.638-10.437,70.6,1.2,38.081,16.348,74.1,43.644,98.914-.434.022,5.622,5.164,12.154,9.56,2.511,1.693,6.1,5.112,7.843,4.74-6.423,21.394-20.69,75.906-22.3,97.728,0,.428-.4.856-.4,1.284v.856a356.244,356.244,0,0,0-.8,41.5c0,3.851.4,8.13.8,11.98-12.845-29.1-28.1-57.335-46.162-83.007-10.437-14.976-21.275-28.668-27.3-46.638s-8.028-37.225-10.437-56.051a2.07,2.07,0,0,0-4.014-.428c-4.416,11.981-8.43,24.389-10.838,37.225-2.81,13.692-3.613,28.24-4.416,41.932-1.606,24.817-2.408,54.34,9.232,77.017,10.838,21.822,28.1,41.076,44.958,58.191,8.831,8.985,52.976,41.068,54.679,44.37,2.6,5.065,3.288,16.292,4.329,12.965.8,5.134,2.007,10.269,2.81,15.4,8.028,40.22,19.268,80.44,37.733,116.382,1.2,2.567,5.218.856,4.014-2.139-14.852-29.523-25.289-61.614-32.916-94.56.4,0,.4-.428.8-.428h0c16.458-11.125,32.514-23.533,46.163-38.509,14.049-15.4,23.282-32.946,30.909-53.056a394.643,394.643,0,0,0,18.064-61.186c3.613-18.826,4.014-38.937,11.24-56.907a1.969,1.969,0,0,0-.4-2.139,1.688,1.688,0,0,0-2.81-.856c-32.916,22.249-67.036,46.21-85.5,83.863-16.859,34.658-13.648,74.45-21.676,111.675-6.423-32.946-10.437-66.32-13.247-99.267-.8-12.408-1.606-24.817-1.2-37.225.8,2.139,1.33-25.1,1.33-25.1s1.925-8.2,6.457-12.216c5.7-5.04,16.615-4.118,13.087-4.619a162.476,162.476,0,0,0,95.536-57.763A315.154,315.154,0,0,0,378.8,368.849c10.838-20.966,18.465-43.215,29.7-63.753.8-1.712-.8-4.707-2.81-3.423-22.479,14.548-46.564,24.817-68.642,40.22-15.254,10.7-30.507,21.394-44.958,33.8-27.3,23.105-44.958,53.912-58.606,87.714,1.2-5.99,2.81-11.98,4.416-17.971a536.625,536.625,0,0,1,20.472-60.758c.4-.428.4-.856.8-1.284h0L266.4,366.71c0-.428.4-.428.4-.856,4.014-9.413,8.43-18.4,13.247-27.384a139.12,139.12,0,0,1,7.627-13.264c32.514-22.677,74.261-20.966,109.184-37.225a115.936,115.936,0,0,0,47.768-40.648c12.444-18.4,18.465-39.792,28.9-59.047C474.333,185.291,471.925,182.724,469.918,184.435Zm-100.353-.428a249.215,249.215,0,0,0,13.648-45.782c6.021-27.384,8.831-55.624,15.655-82.58-4.416,32.946-3.613,67.176-12.444,99.267-4.416,15.831-10.838,31.663-20.472,44.927l-10.838,14.12C359.93,204.545,365.149,194.7,369.564,184.007ZM349.092,215.67c4.014-25.672,7.627-51.773,14.852-76.589,6.824-24.817,16.859-48.778,28.1-71.883-4.416,22.249-7.225,45.355-12.042,67.6a303.7,303.7,0,0,1-13.648,46.21C361.135,193.421,355.114,204.545,349.092,215.67Zm10.838-78.3c-6.824,23.961-10.437,49.205-14.451,74.022a319.406,319.406,0,0,1,.8-33.8c1.2-16.687,2.409-35.086,8.43-50.917s14.852-30.807,23.282-45.782L392.445,56.5C379.2,83.029,367.557,109.557,359.93,137.369Zm43.353-2.567c-2.81,19.682-8.43,38.081-20.071,53.912a179.542,179.542,0,0,1-22.078,24.817c2.81-3.851,6.021-7.7,8.831-11.553,9.233-12.408,15.254-27.812,20.071-42.787,8.831-30.379,8.831-62.47,12.444-93.7.4,2.567.4,5.562.8,8.13C404.889,94.154,406.093,114.264,403.283,134.8Zm-55.8-11.553c6.423-18.4,16.458-34.658,27.3-50.061,4.416-6.418,9.232-12.836,14.049-19.682-5.62,8.985-11.24,18.4-16.458,27.384-8.43,14.976-17.261,30.379-23.282,46.638-5.218,15.4-6.824,32.946-7.627,49.633-.8,9.413-.8,19.254-.8,28.667C337.05,178.445,338.656,149.777,347.487,123.249Zm-120.022,472.8c0,1.284.4,2.567.4,3.423A126.485,126.485,0,0,0,217.83,581.5c-6.824-10.269-13.247-20.966-20.071-31.663-14.852-23.533-30.106-46.21-40.944-72.311A239.8,239.8,0,0,1,143.971,435.6c.8,2.567,1.606,4.707,2.408,7.274,7.225,19.254,19.669,35.941,30.106,53.484L209,551.551c7.627,12.836,16.056,27.384,17.662,43.215A5.312,5.312,0,0,0,227.464,596.049ZM151.2,475.389c9.634,24.389,23.282,46.638,37.331,68.46,6.824,10.7,13.247,21.822,20.472,32.518,6.824,10.7,14.451,20.966,18.064,33.374-13.247-16.687-26.092-33.8-39.338-50.489-24.085-30.379-43.754-64.181-47.768-104.829-.8-9.413-1.2-18.826-1.606-28.24A226.393,226.393,0,0,0,151.2,475.389Zm-2.007,31.235c13.247,29.951,34.522,53.912,53.789,79.585,6.021,8.13,12.444,15.831,18.465,23.961-1.606-1.284-2.81-2.139-4.416-3.423A365.521,365.521,0,0,1,184.915,576.8c-26.895-29.1-48.17-65.037-53.388-106.113a168.513,168.513,0,0,1,0-40.22c1.2-8.13,2.007-16.687,2.81-25.245C133.132,439.448,135.139,474.533,149.189,506.624Zm20.472-38.936c22.479,30.807,40.141,64.609,54.994,99.695a8.852,8.852,0,0,0,.4,3.423c-2.408-5.134-5.218-10.269-7.627-14.976-11.24-18.826-22.479-37.653-33.317-56.907-10.035-17.115-22.479-33.8-30.507-51.773a115.808,115.808,0,0,1-7.225-21.822C151.2,441.587,160.027,454.423,169.661,467.687Zm-34.923,57.335c-12.444-23.105-11.24-53.056-9.634-78.3.8-12.408,1.606-25.245,3.613-38.081.8-4.707,2.007-8.985,2.81-13.692-.8,8.13-1.606,16.687-2.81,24.817-2.007,12.408-3.211,24.817-2.408,37.225a168.91,168.91,0,0,0,15.655,64.181c15.254,32.946,39.338,59.9,65.43,82.58,6.824,5.562,14.451,10.7,20.873,17.115A298.285,298.285,0,0,1,180.9,582.358C163.64,566.1,146.78,546.844,134.738,525.023ZM289.282,602.9c11.641-23.533,19.669-48.778,29.3-73.594a402.064,402.064,0,0,1,17.261-38.081c-9.634,29.1-14.049,59.9-24.888,88.57-6.824,17.543-17.662,32.518-28.5,47.066a436.606,436.606,0,0,1-28.5,33.374C266.8,641.832,278.845,623.433,289.282,602.9Zm-33.719,47.494c11.24-30.807,20.873-62.042,32.113-92.849,10.035-26.956,27.3-48.35,44.958-69.743-6.021,11.553-11.641,23.105-16.458,35.086-10.035,24.817-17.662,50.489-29.3,74.45C278.042,616.16,266.8,633.7,255.563,650.389Zm29.3-97.127c-10.437,27.384-19.268,55.2-28.9,83.007q2.409-13.478,3.613-26.956c1.2-8.985,3.613-17.971,5.218-26.956,2.007-8.985,3.613-17.543,7.225-25.672,8.43-18.826,21.676-35.941,35.324-50.489a219.388,219.388,0,0,1,17.662-16.687C309.352,509.191,294.1,529.3,284.866,553.262Zm52.986-38.509c-3.211,20.11-9.232,39.792-16.057,59.047-7.225,20.11-15.655,39.364-29.7,55.624-8.43,10.269-18.465,18.826-28.5,26.956,7.225-8.13,14.049-16.259,20.873-24.817,10.838-14.12,21.676-28.667,28.5-45.355,13.247-31.663,17.261-66.748,28.9-98.839C340.261,496.355,339.057,505.768,337.853,514.754ZM264.8,552.406c13.247-30.379,37.331-51.773,63.022-70.6-8.028,6.846-16.057,14.12-23.683,21.822-13.247,14.12-25.289,29.951-34.12,47.494-7.627,15.831-10.838,34.658-14.049,51.773-3.613,20.538-4.817,40.22-11.641,59.474C253.556,626.429,249.943,587.064,264.8,552.406ZM254.76,381.257l-4.817,12.836a242.02,242.02,0,0,0-3.613-53.912c-3.613-19.682-10.035-38.936-16.057-57.763-6.824-20.538-13.247-41.5-16.056-63.325-.4-1.711-.4-3.851-.8-5.562,4.817,16.687,11.641,32.518,18.866,48.35C247.936,297.822,256.767,340.609,254.76,381.257ZM222.647,273.005c6.423,20.538,14.049,40.648,18.465,62.042a272.559,272.559,0,0,1,4.817,56.907,447.762,447.762,0,0,1-30.909-106.541c-3.613-23.105-6.423-46.638-7.225-70.171a238.466,238.466,0,0,1,0-23.961c.4,7.7.8,14.976,1.606,22.677C211.006,234.068,216.225,253.751,222.647,273.005Zm-7.627,38.936a441.585,441.585,0,0,0,15.254,51.345c2.409,6.846,4.817,13.264,7.225,20.11-4.817-8.13-9.634-16.259-14.049-24.389-6.021-10.7-12.444-20.966-16.458-32.946-8.028-23.533-7.627-49.205-6.423-74.022.8-11.98,1.606-24.389,2.81-36.369.4,11.98,1.2,24.389,2.409,36.369C208.2,272.149,210.6,292.259,215.02,311.941Zm-28.1-30.379c.8-23.105,8.43-45.355,11.24-68.032,1.2-9.413,2.81-18.826,4.014-28.24-.4,2.567-.8,5.562-1.2,8.13-2.408,22.249-4.817,44.5-5.62,66.748-.8,23.105,0,47.494,8.028,69.315,4.817,12.408,12.042,23.961,18.465,35.514,5.218,8.985,10.035,17.971,15.655,26.528a5.467,5.467,0,0,0-2.408-.856C204.584,365.854,185.717,323.066,186.922,281.562ZM379.2,331.624c-20.472,22.249-39.74,45.355-60.212,67.6-22.881,25.245-47.367,47.922-74.261,67.6,20.472-24.817,41.346-49.633,63.825-72.738A784.016,784.016,0,0,1,379.2,331.624ZM320.191,404.79c22.479-24.817,44.155-50.489,67.036-74.878-6.824,11.98-12.845,24.389-20.472,35.513-8.028,11.553-16.859,22.677-25.289,33.8-8.43,10.7-16.859,22.249-27.7,30.807a270.233,270.233,0,0,1-35.324,23.533c-9.634,5.562-19.669,11.553-29.7,16.259C274.43,451,298.113,428.751,320.191,404.79ZM399.269,312.8ZM304.134,392.81c-19.669,20.538-38.134,42.359-56.6,64.181q10.838-17.971,22.881-34.658c10.437-14.548,21.275-28.24,34.522-39.792,22.479-19.682,46.965-37.225,71.05-53.912A700.11,700.11,0,0,0,304.134,392.81Zm40.141,20.966c-24.486,31.663-57.8,52.628-94.733,60.33a196.879,196.879,0,0,0,22.88-11.98,421.106,421.106,0,0,0,39.339-25.245c22.078-16.259,38.937-41.932,54.994-64.609,8.831-11.98,15.254-25.245,22.881-38.081-4.014,8.985-7.627,17.971-12.042,26.528A296.5,296.5,0,0,1,344.275,413.775ZM295.7,377.406c13.648-11.553,28.1-21.822,42.55-32.091,10.838-7.7,22.479-14.12,34.12-20.538-10.035,7.274-20.071,14.976-29.7,22.249-25.69,18.826-49.775,38.081-69.444,64.181a493.174,493.174,0,0,0-37.733,57.335C249.542,433.458,267.606,401.367,295.7,377.406Zm-55.8-107.824c-8.028-19.682-17.662-38.509-23.282-59.047a225.47,225.47,0,0,1-6.021-32.09v-4.279c.8,3.851,1.2,7.7,2.007,11.553,4.014,20.11,11.641,38.081,20.071,56.907s16.859,38.081,22.078,58.191c5.218,19.682,10.035,41.932,7.225,62.47-1.2,2.567-2.007,5.134-3.211,7.274,0-14.976-2.007-29.951-4.416-44.5C251.549,306.807,247.535,287.981,239.908,269.582ZM287.676,115.12c3.613,26.528,7.225,53.056,12.042,79.584a265.158,265.158,0,0,1,4.416,50.489c0,12.836.4,26.956-2.007,39.792C288.88,229.79,287.676,172.027,287.676,115.12Zm24.888,141.626c-1.2,7.274-2.007,15.831-5.218,22.677,1.2-10.269,1.2-20.966,1.2-30.807,0-17.543-.8-35.086-4.014-52.2-5.218-28.24-9.233-57.335-13.247-86,1.606,5.99,2.81,11.553,4.416,17.543,4.817,17.115,10.838,34.23,15.254,51.773a152.693,152.693,0,0,1,4.416,52.2A245.969,245.969,0,0,1,312.564,256.746ZM295.3,273.861c-10.838-26.956-19.268-55.624-18.064-85.147.8-17.543,3.613-35.514,6.423-53.056C284.064,182.3,285.669,228.934,295.3,273.861Zm66.233,3.851c33.317-18.826,64.226-41.076,91.924-68.46-8.028,13.264-15.655,26.528-26.092,37.653-15.254,17.115-35.726,23.961-56.2,32.091s-40.944,16.259-61.416,24.817C327.416,295.254,344.677,287.125,361.536,277.712Zm-57.4,23.961c11.641-11.98,24.888-22.249,38.134-32.091a298.1,298.1,0,0,1,53.789-31.235c12.444-5.562,24.085-10.7,35.726-17.543l8.43-5.134c-25.289,23.105-52.986,42.359-82.29,59.047C340.261,284.558,322.2,293.115,304.134,301.673Zm48.17-56.907c14.852-11.553,34.923-19.254,52.585-24.817,11.641-3.851,24.085-5.135,35.324-10.7,3.211-1.712,6.824-3.423,10.035-5.562-8.028,5.99-16.859,10.7-24.888,15.4-12.042,6.846-24.486,11.553-36.93,17.543-17.662,8.557-34.923,18.4-50.578,30.379a374.819,374.819,0,0,0-31.712,26.1c1.606-3,3.613-5.562,5.218-8.557.8-.856,1.2-2.139,2.007-3C326.613,269.582,338.254,255.89,352.3,244.765ZM323.4,208.4c0,15.4-1.606,30.807-6.021,45.782.8-4.707,1.606-9.841,2.007-14.548a163.036,163.036,0,0,0-2.007-52.2c-4.014-18.4-10.437-36.369-15.655-54.34-2.007-7.274-4.014-14.548-6.021-22.249,3.613,7.7,7.225,14.976,10.838,22.677C316.979,157.479,323.4,181.868,323.4,208.4Zm-54.994-21.822c1.2-17.543,6.021-34.23,9.233-51.773,2.007-9.841,3.613-19.682,5.218-29.523-2.007,28.668-9.634,57.335-10.035,86.43s8.028,56.907,18.465,83.435c-7.627-11.98-14.451-24.389-18.465-38.937C268.408,220.377,267.2,203.262,268.408,186.574ZM441.016,243.91c-12.845,19.254-30.909,32.946-51.381,41.5-21.275,8.557-44.557,11.553-66.635,17.971,18.064-7.7,36.127-14.548,54.191-21.822,19.669-8.13,38.937-14.976,53.789-32.09,10.838-11.981,18.866-26.528,27.7-40.22C453.46,221.232,448.241,232.785,441.016,243.91Z" transform="translate(131.716 1423.445) rotate(-87)" fill="#0e898b"/>
        <path id="Path_136" data-name="Path 136" d="M489.623,182.951c-11.447,8.9-23.743,16.959-36.886,22.471-11.871,4.664-25.439,5.936-37.31,10.175-17.807,5.936-37.31,13.143-53,24.167-9.751,7.208-18.231,15.263-27.135,23.743,8.056-11.447,16.535-22.895,25.439-33.494l.424-.424v-.424c13.567-11.447,27.135-22.895,38.158-36.462a111.2,111.2,0,0,0,22.047-46.214,194.214,194.214,0,0,0,3.816-54.269c-1.7-22.047-8.9-46.638,2.968-67.412,1.272-2.544-1.7-4.664-3.816-2.544-13.991,16.535-27.559,33.07-40.278,50.453-11.447,15.687-22.047,32.222-28.407,50.877-11.871,34.342-10.6,72.076-.848,106.842-9.328,11.447-17.807,23.319-26.287,35.19,1.272-2.968,2.12-5.512,3.392-8.48,5.512-16.111,7.632-33.07,7.632-49.605A166.805,166.805,0,0,0,324.7,138.857c-9.752-22.895-25.863-44.094-27.135-69.532,0-2.544-4.24-2.12-4.664,0-2.968,22.471-6.784,44.942-11.447,66.988-3.816,17.807-8.48,35.614-9.328,53.845-.848,16.535.848,33.494,6.36,49.181,4.24,12.719,19.744,39.3,26.528,49.9,2.948,10.016.379,9.509.379,9.509-.424.424-14.612,24.116-15.884,25.812-4.664,8.056-9.328,16.111-13.567,24.591.424-15.687-3.392-32.222-7.208-47.061-5.088-19.927-13.143-39.006-22.047-57.661-9.327-19.927-18.655-38.582-23.743-60.2-3.816-16.111-5.088-32.646-8.48-48.757a2.379,2.379,0,0,0-4.664,0c-3.816,27.135-8.48,53.845-12.719,80.98-3.392,23.319-11.871,46.214-11.023,69.956,1.272,37.734,17.267,73.423,46.1,98.013-.459.022,5.938,5.117,12.837,9.473,2.653,1.678,6.442,5.065,8.284,4.7-6.784,21.2-21.853,75.215-23.549,96.838,0,.424-.424.848-.424,1.272v.848a331.235,331.235,0,0,0-.848,41.126,111.735,111.735,0,0,0,.848,11.871c-13.567-28.83-29.678-56.813-48.757-82.252-11.023-14.839-22.471-28.407-28.831-46.214s-8.48-36.886-11.023-55.541a2.219,2.219,0,0,0-4.24-.424c-4.664,11.871-8.9,24.167-11.447,36.886-2.968,13.567-3.816,27.983-4.664,41.55-1.7,24.591-2.544,53.845,9.751,76.316,11.447,21.623,29.678,40.7,47.485,57.661,9.327,8.9,55.954,40.694,57.753,43.966,2.744,5.019,3.473,16.144,4.572,12.847.848,5.088,2.12,10.175,2.968,15.263,8.48,39.854,20.351,79.708,39.854,115.322a2.372,2.372,0,0,0,4.24-2.12c-15.687-29.254-26.711-61.053-34.766-93.7.424,0,.424-.424.848-.424h0c17.383-11.023,34.342-23.319,48.757-38.158,14.839-15.263,24.591-32.646,32.646-52.573a372.959,372.959,0,0,0,19.079-60.629c3.816-18.655,4.24-38.582,11.871-56.389a1.864,1.864,0,0,0-.424-2.12,1.822,1.822,0,0,0-2.968-.848c-34.766,22.047-70.8,45.79-90.307,83.1C253.891,576.4,257.283,615.832,248.8,652.718,242.02,620.072,237.78,587,234.812,554.355c-.848-12.3-1.7-24.591-1.272-36.886.848,2.12,1.4-24.868,1.4-24.868s2.034-8.129,6.82-12.1c6.023-4.994,17.549-4.08,13.822-4.577,39.006-7.208,74.62-26.711,100.907-57.237a311.093,311.093,0,0,0,36.886-53c11.447-20.775,19.5-42.822,31.374-63.173.848-1.7-.848-4.664-2.968-3.392-23.743,14.415-49.181,24.591-72.5,39.854-16.111,10.6-32.222,21.2-47.485,33.494-28.831,22.895-47.486,53.421-61.9,86.915,1.272-5.936,2.968-11.871,4.664-17.807a509.325,509.325,0,0,1,21.623-60.2c.424-.424.424-.848.848-1.272h0l7.632-16.535c0-.424.424-.424.424-.848,4.24-9.327,8.9-18.231,13.991-27.135a135.973,135.973,0,0,1,8.056-13.143c34.342-22.471,78.436-20.775,115.322-36.886,20.351-8.9,37.734-22.471,50.453-40.278,13.143-18.231,19.5-39.43,30.526-58.509C494.287,183.8,491.743,181.255,489.623,182.951Zm-105.994-.424a235.612,235.612,0,0,0,14.415-45.366c6.36-27.135,9.327-55.117,16.535-81.828-4.664,32.646-3.816,66.564-13.143,98.363-4.664,15.687-11.447,31.374-21.623,44.518l-11.447,13.991C373.453,202.877,378.965,193.126,383.629,182.527ZM362.006,213.9c4.24-25.439,8.056-51.3,15.687-75.892,7.208-24.591,17.807-48.333,29.678-71.228-4.664,22.047-7.632,44.942-12.719,66.988a287.016,287.016,0,0,1-14.415,45.79C374.725,191.854,368.365,202.877,362.006,213.9Zm11.447-77.588c-7.208,23.743-11.023,48.757-15.263,73.348a296.981,296.981,0,0,1,.848-33.494c1.272-16.535,2.544-34.766,8.9-50.453s15.687-30.526,24.591-45.366L407.8,56.181C393.8,82.468,381.509,108.754,373.453,136.313Zm45.79-2.544c-2.968,19.5-8.9,37.734-21.2,53.421a182.192,182.192,0,0,1-23.319,24.591c2.968-3.816,6.36-7.632,9.328-11.447,9.751-12.3,16.111-27.559,21.2-42.4,9.328-30.1,9.328-61.9,13.143-92.851.424,2.544.424,5.512.848,8.056C420.939,93.491,422.211,113.418,419.243,133.769ZM360.31,122.322c6.784-18.231,17.383-34.342,28.831-49.605,4.664-6.36,9.751-12.719,14.839-19.5-5.936,8.9-11.871,18.231-17.383,27.135-8.9,14.839-18.231,30.1-24.591,46.214-5.512,15.263-7.208,32.646-8.056,49.181-.848,9.327-.848,19.079-.848,28.406C349.286,177.015,350.982,148.608,360.31,122.322Zm-126.769,468.5c0,1.272.424,2.544.424,3.392a123.359,123.359,0,0,0-10.6-17.807c-7.208-10.175-13.991-20.775-21.2-31.374-15.687-23.319-31.8-45.79-43.246-71.652-5.936-13.143-10.175-27.135-13.567-41.55.848,2.544,1.7,4.664,2.544,7.208,7.632,19.079,20.775,35.614,31.8,53l34.342,54.693c8.056,12.719,16.959,27.135,18.655,42.822A5.246,5.246,0,0,0,233.541,590.817ZM152.985,471.255c10.175,24.167,24.591,46.214,39.43,67.836,7.208,10.6,13.991,21.623,21.623,32.222,7.208,10.6,15.263,20.775,19.079,33.07-13.991-16.535-27.559-33.494-41.55-50.029-25.439-30.1-46.214-63.6-50.453-103.874-.848-9.328-1.272-18.655-1.7-27.983A213.29,213.29,0,0,0,152.985,471.255Zm-2.12,30.95c13.991,29.678,36.462,53.421,56.813,78.86,6.36,8.056,13.143,15.687,19.5,23.743-1.7-1.272-2.968-2.12-4.664-3.392A377.568,377.568,0,0,1,188.6,571.738c-28.407-28.83-50.877-64.445-56.389-105.146a156.729,156.729,0,0,1,0-39.854c1.272-8.056,2.12-16.535,2.968-25.015C133.906,435.641,136.026,470.407,150.865,502.206Zm21.623-38.582c23.743,30.526,42.4,64.021,58.085,98.787A8.264,8.264,0,0,0,231,565.8c-2.544-5.088-5.512-10.175-8.056-14.839-11.871-18.655-23.743-37.31-35.19-56.389-10.6-16.959-23.743-33.494-32.222-51.3A109.858,109.858,0,0,1,147.9,421.65C152.985,437.761,162.312,450.48,172.488,463.624ZM135.6,520.437c-13.143-22.895-11.871-52.573-10.175-77.588.848-12.3,1.7-25.015,3.816-37.734.848-4.664,2.12-8.9,2.968-13.567-.848,8.056-1.7,16.535-2.968,24.591-2.12,12.3-3.392,24.591-2.544,36.886a159.009,159.009,0,0,0,16.535,63.6c16.111,32.646,41.55,59.357,69.108,81.828,7.208,5.512,15.263,10.6,22.047,16.959a312.064,312.064,0,0,1-50.029-38.158C166.128,561.138,148.321,542.06,135.6,520.437ZM298.833,597.6c12.3-23.319,20.775-48.333,30.95-72.924a386.876,386.876,0,0,1,18.231-37.734c-10.175,28.83-14.839,59.357-26.287,87.763-7.208,17.383-18.655,32.222-30.1,46.638a441.334,441.334,0,0,1-30.1,33.07C275.09,636.182,287.81,617.952,298.833,597.6Zm-35.614,47.061c11.871-30.526,22.047-61.477,33.918-92,10.6-26.711,28.831-47.909,47.486-69.108a379.708,379.708,0,0,0-17.383,34.766c-10.6,24.591-18.655,50.029-30.95,73.772C286.962,610.744,275.09,628.127,263.219,644.662Zm30.95-96.243c-11.023,27.135-20.351,54.693-30.526,82.252q2.544-13.355,3.816-26.711c1.272-8.9,3.816-17.807,5.512-26.711,2.12-8.9,3.816-17.383,7.632-25.439,8.9-18.655,22.895-35.614,37.31-50.029a226.361,226.361,0,0,1,18.655-16.535C320.032,504.749,303.921,524.676,294.169,548.419Zm55.965-38.158c-3.392,19.927-9.751,39.43-16.959,58.509-7.632,19.927-16.535,39.006-31.374,55.117-8.9,10.175-19.5,18.655-30.1,26.711,7.632-8.056,14.839-16.111,22.047-24.591,11.447-13.991,22.895-28.406,30.1-44.942,13.991-31.374,18.231-66.141,30.526-97.939C352.678,492.03,351.406,501.358,350.134,510.261Zm-77.164,37.31c13.991-30.1,39.43-51.3,66.565-69.956-8.48,6.784-16.959,13.991-25.015,21.623-13.991,13.991-26.711,29.678-36.038,47.062-8.056,15.687-11.447,34.342-14.839,51.3-3.816,20.351-5.088,39.854-12.3,58.933C261.1,620.919,257.283,581.913,272.97,547.571Zm-10.6-169.591L257.283,390.7a225.283,225.283,0,0,0-3.816-53.421c-3.816-19.5-10.6-38.582-16.959-57.237-7.208-20.351-13.991-41.126-16.959-62.749-.424-1.7-.424-3.816-.848-5.512C223.789,228.316,231,244,238.628,259.69,255.163,295.3,264.491,337.7,262.371,377.98ZM228.453,270.714c6.784,20.351,14.839,40.278,19.5,61.477a253.836,253.836,0,0,1,5.088,56.389c-15.263-33.494-26.711-69.532-32.646-105.57-3.816-22.895-6.784-46.214-7.632-69.532a221.7,221.7,0,0,1,0-23.743c.424,7.632.848,14.839,1.7,22.471C216.157,232.132,221.669,251.635,228.453,270.714ZM220.4,309.3a417.373,417.373,0,0,0,16.111,50.877c2.544,6.784,5.088,13.143,7.632,19.927-5.088-8.056-10.175-16.111-14.839-24.167-6.36-10.6-13.143-20.775-17.383-32.646-8.48-23.319-8.056-48.757-6.784-73.348.848-11.871,1.7-24.167,2.968-36.038.424,11.871,1.272,24.167,2.544,36.038C213.19,269.866,215.733,289.793,220.4,309.3Zm-29.678-30.1c.848-22.895,8.9-44.942,11.871-67.412,1.272-9.327,2.968-18.655,4.24-27.982-.424,2.544-.848,5.512-1.272,8.056-2.544,22.047-5.088,44.094-5.936,66.141-.848,22.895,0,47.061,8.48,68.684,5.088,12.3,12.719,23.743,19.5,35.19,5.512,8.9,10.6,17.807,16.535,26.287a6.026,6.026,0,0,0-2.544-.848C209.374,362.717,189.447,320.319,190.719,279.193ZM393.8,328.8c-21.623,22.047-41.974,44.942-63.6,66.988a511.985,511.985,0,0,1-78.436,66.988c21.623-24.591,43.67-49.181,67.412-72.076C342.5,368.653,367.518,348.3,393.8,328.8Zm-62.325,72.5c23.743-24.591,46.638-50.029,70.8-74.2-7.208,11.871-13.567,24.167-21.623,35.19-8.48,11.447-17.807,22.471-26.711,33.494-8.9,10.6-17.807,22.047-29.254,30.526a287.572,287.572,0,0,1-37.31,23.319c-10.175,5.512-20.775,11.447-31.374,16.111C283.146,447.089,308.161,425.042,331.479,401.3ZM415,310.144ZM314.52,389.428c-20.775,20.351-40.278,41.974-59.781,63.6q11.447-17.807,24.167-34.342c11.023-14.415,22.471-27.983,36.462-39.43,23.743-19.5,49.605-36.886,75.044-53.421A726.149,726.149,0,0,0,314.52,389.428Zm42.4,20.775a172.041,172.041,0,0,1-100.059,59.781,213.108,213.108,0,0,0,24.167-11.871,449.433,449.433,0,0,0,41.55-25.015c23.319-16.111,41.126-41.55,58.085-64.021,9.328-11.871,16.111-25.015,24.167-37.734-4.24,8.9-8.056,17.807-12.719,26.287A291.758,291.758,0,0,1,356.918,410.2Zm-51.3-36.038c14.415-11.447,29.678-21.623,44.942-31.8,11.447-7.632,23.743-13.991,36.038-20.351-10.6,7.208-21.2,14.839-31.374,22.047-27.135,18.655-52.573,37.734-73.348,63.6a487.082,487.082,0,0,0-39.854,56.813C256.859,429.705,275.938,397.907,305.617,374.164ZM246.684,267.322c-8.48-19.5-18.655-38.158-24.591-58.509a211.09,211.09,0,0,1-6.36-31.8v-4.24c.848,3.816,1.272,7.632,2.12,11.447,4.24,19.927,12.3,37.734,21.2,56.389s17.807,37.734,23.319,57.661c5.512,19.5,10.6,41.55,7.632,61.9-1.272,2.544-2.12,5.088-3.392,7.208,0-14.839-2.12-29.678-4.664-44.094C258.979,304.208,254.739,285.553,246.684,267.322Zm50.453-153.056c3.816,26.287,7.632,52.573,12.719,78.86a246.957,246.957,0,0,1,4.664,50.029c0,12.719.424,26.711-2.12,39.43C298.409,227.892,297.137,170.655,297.137,114.266ZM323.424,254.6c-1.272,7.208-2.12,15.687-5.512,22.471,1.272-10.175,1.272-20.775,1.272-30.526,0-17.383-.848-34.766-4.24-51.725-5.512-27.983-9.751-56.813-13.991-85.22,1.7,5.936,2.968,11.447,4.664,17.383,5.088,16.959,11.447,33.918,16.111,51.3a142.293,142.293,0,0,1,4.664,51.725A229.266,229.266,0,0,1,323.424,254.6Zm-18.231,16.959c-11.447-26.711-20.351-55.117-19.079-84.372.848-17.383,3.816-35.19,6.784-52.573C293.321,180.831,295.017,227.044,305.193,271.562Zm69.956,3.816c35.19-18.655,67.836-40.7,97.091-67.836-8.48,13.143-16.535,26.287-27.559,37.31-16.111,16.959-37.734,23.743-59.357,31.8s-43.246,16.111-64.869,24.591C339.111,292.761,357.342,284.705,375.149,275.378ZM314.52,299.12c12.3-11.871,26.287-22.047,40.278-31.8a320.461,320.461,0,0,1,56.813-30.95c13.143-5.512,25.439-10.6,37.734-17.383l8.9-5.088c-26.711,22.895-55.965,41.974-86.915,58.509C352.678,282.161,333.6,290.641,314.52,299.12ZM365.4,242.731c15.687-11.447,36.886-19.079,55.541-24.591,12.3-3.816,25.439-5.088,37.31-10.6,3.392-1.7,7.208-3.392,10.6-5.512-8.48,5.936-17.807,10.6-26.287,15.263-12.719,6.784-25.863,11.447-39.006,17.383-18.655,8.48-36.886,18.231-53.421,30.1a391.727,391.727,0,0,0-33.494,25.863c1.7-2.968,3.816-5.512,5.512-8.48.848-.848,1.272-2.12,2.12-2.968C338.263,267.322,350.558,253.755,365.4,242.731Zm-30.526-36.038c0,15.263-1.7,30.526-6.36,45.366.848-4.664,1.7-9.751,2.12-14.415a151.739,151.739,0,0,0-2.12-51.725c-4.24-18.231-11.023-36.038-16.535-53.845-2.12-7.208-4.24-14.415-6.36-22.047,3.816,7.632,7.632,14.839,11.447,22.471C328.088,156.24,334.871,180.407,334.871,206.693ZM276.786,185.07c1.272-17.383,6.36-33.918,9.751-51.3,2.12-9.751,3.816-19.5,5.512-29.254-2.12,28.406-10.175,56.813-10.6,85.643s8.48,56.389,19.5,82.676c-8.056-11.871-15.263-24.167-19.5-38.582C276.786,218.565,275.514,201.606,276.786,185.07ZM459.1,241.883c-13.567,19.079-32.646,32.646-54.269,41.126-22.471,8.48-47.062,11.447-70.38,17.807,19.079-7.632,38.158-14.415,57.237-21.623,20.775-8.056,41.126-14.839,56.813-31.8,11.447-11.871,19.927-26.287,29.254-39.854C472.24,219.413,466.728,230.86,459.1,241.883Z" transform="translate(6.464 204.335) rotate(21)" fill="#1c8c93"/>
      </g>
      <g id="dino" transform="translate(444.386 937.035) rotate(163)">
        <path id="Path_117" data-name="Path 117" d="M68.34,4.972l-3.9,106.221-48.075-4.754L0,57.827,46.651,0Z" transform="translate(16.908 84.728)" fill="#ab0a30"/>
        <path id="Path_118" data-name="Path 118" d="M19.253,11.673,14.6,17.442,0,8.035.364,6.8,2.7,0Z" transform="translate(11.855 110.133)" fill="#ab0a30"/>
        <path id="Path_119" data-name="Path 119" d="M16.2,12.831,0,23.773,8.181,0Z" transform="translate(15.946 82.322)" fill="#ab0a30"/>
        <path id="Path_120" data-name="Path 120" d="M0,24.01,35.54,0h9.81L16.561,35.69Z" transform="translate(15.79 84.578)" fill="#ab0a30"/>
        <path id="Path_121" data-name="Path 121" d="M0,48.41,69.809,0,69.8.01,192.009,88.539Z" transform="translate(90.932 106.933)" fill="#ab0a30"/>
        <path id="Path_122" data-name="Path 122" d="M0,63.924,2.348,0,19.282,3.882,2.631,64.473Z" transform="translate(84.861 90.151)" fill="#ab0a30"/>
        <path id="Path_123" data-name="Path 123" d="M16.278,3.8,0,11.96,16.278,0Z" transform="translate(55.089 206.261)" fill="#ab0a30"/>
        <path id="Path_124" data-name="Path 124" d="M0,11.137V0L79.636,7.872,45,33.316Z" transform="translate(0 189.863)" fill="#ab0a30"/>
        <path id="Path_125" data-name="Path 125" d="M0,136.666l25.34-92.2L66.548,0l3.931,87.784Z" transform="translate(89.784 17.071)" fill="#ab0a30"/>
        <path id="Path_126" data-name="Path 126" d="M71.334,14.3,51.077,36.158,0,0,71.325,14.128Z" transform="translate(84.874 0)" fill="#ab0a30"/>
      </g>
      <g id="dino-2" data-name="dino" transform="translate(1756.3 414.879) rotate(-2)">
        <path id="Path_117-2" data-name="Path 117" d="M38.4,59.692,36.212,0,9.195,2.672,0,29.99l26.216,32.5Z" transform="translate(9.502 15.318)" fill="#ab0a30"/>
        <path id="Path_118-2" data-name="Path 118" d="M10.819,3.242,8.2,0,0,5.286l.2.694L1.518,9.8Z" transform="translate(6.662 53.726)" fill="#ab0a30"/>
        <path id="Path_119-2" data-name="Path 119" d="M9.105,6.149,0,0,4.6,13.359Z" transform="translate(8.961 65.797)" fill="#ab0a30"/>
        <path id="Path_120-2" data-name="Path 120" d="M0,6.564,19.972,20.056h5.513L9.306,0Z" transform="translate(8.873 57.832)" fill="#ab0a30"/>
        <path id="Path_121-2" data-name="Path 121" d="M0,22.551l39.23,27.2,0-.005L107.9,0Z" transform="translate(51.1 15.57)" fill="#ab0a30"/>
        <path id="Path_122-2" data-name="Path 122" d="M0,.309,1.319,36.232l9.517-2.182L1.478,0Z" transform="translate(47.689 38.525)" fill="#ab0a30"/>
        <path id="Path_123-2" data-name="Path 123" d="M9.147,4.587,0,0,9.147,6.721Z" transform="translate(30.958 2.787)" fill="#ab0a30"/>
        <path id="Path_124-2" data-name="Path 124" d="M0,12.464v6.258L44.752,14.3,25.29,0Z" transform="translate(0 0)" fill="#ab0a30"/>
        <path id="Path_125-2" data-name="Path 125" d="M0,0,14.24,51.815,37.4,76.8,39.607,27.47Z" transform="translate(50.455 39.024)" fill="#ab0a30"/>
        <path id="Path_126-2" data-name="Path 126" d="M40.087,12.283,28.7,0,0,20.32l40.082-7.94Z" transform="translate(47.696 105.099)" fill="#ab0a30"/>
      </g>
      <g id="bird" transform="matrix(0.883, 0.469, -0.469, 0.883, 46.541, 186.188)">
        <g id="Group_11" data-name="Group 11" transform="matrix(0.839, 0.545, -0.545, 0.839, 67.719, 25.275)">
          <path id="Path_128" data-name="Path 128" d="M43.661,1.1,41.831,0,0,31.318l48.47-5.631Z" transform="translate(42.414 79.984)" fill="#d4d4d5"/>
          <path id="Path_129" data-name="Path 129" d="M0,20.219C27.58,36.941,58.165,56.057,85.744,72.709,81.2,49.565,76.425,23.144,71.876,0Z" transform="translate(0 6.792)" fill="#d4d4d5"/>
          <path id="Path_130" data-name="Path 130" d="M0,18.556c2.989,15.514,5.982,31.753,9.042,47.2L51.722,0Z" transform="translate(82.832 39.359)" fill="#d4d4d5"/>
          <path id="Path_131" data-name="Path 131" d="M0,0,9.842,49.661,50.37,35.044Z" transform="translate(72.865 7.394)" fill="#d4d4d5"/>
          <path id="Path_132" data-name="Path 132" d="M0,21.113,20.717,35.456l10.24-3.616L31.947,0,10.811,9.465C7.751,12.739,3.06,17.84,0,21.113Z" transform="translate(103.48 6.476)" fill="#d4d4d5"/>
          <path id="Path_133" data-name="Path 133" d="M63.7,0,0,.5,16.371,18.168C61.278,5.227,60.874,5.531,60.826,5.55L91.482,27.027l.85-.913Z" transform="translate(11.379)" fill="#d4d4d5"/>
          <path id="Path_134" data-name="Path 134" d="M.284,0,0,9.762l7.191-.039Z" transform="translate(136.279 6.29)" fill="#d4d4d5"/>
        </g>
      </g>
      <g id="bird-2" data-name="bird" transform="translate(148.299 136.357) rotate(3)">
        <g id="Group_11-2" data-name="Group 11" transform="matrix(0.839, 0.545, -0.545, 0.839, 63.361, 25.275)">
          <path id="Path_128-2" data-name="Path 128" d="M40.522,1.019,38.823,0,0,29.067l44.985-5.226Z" transform="translate(39.365 74.234)" fill="#d4d4d5"/>
          <path id="Path_129-2" data-name="Path 129" d="M0,18.765C25.6,34.286,53.983,52.027,79.58,67.482,75.358,46,70.931,21.48,66.709,0Z" transform="translate(0 6.303)" fill="#d4d4d5"/>
          <path id="Path_130-2" data-name="Path 130" d="M0,17.222c2.774,14.4,5.552,29.47,8.392,43.8L48,0Z" transform="translate(76.877 36.53)" fill="#d4d4d5"/>
          <path id="Path_131-2" data-name="Path 131" d="M0,0,9.134,46.091,46.749,32.525Z" transform="translate(67.627 6.862)" fill="#d4d4d5"/>
          <path id="Path_132-2" data-name="Path 132" d="M0,19.6,19.228,32.907l9.5-3.356L29.651,0,10.034,8.785C7.194,11.823,2.84,16.557,0,19.6Z" transform="translate(96.041 6.01)" fill="#d4d4d5"/>
          <path id="Path_133-2" data-name="Path 133" d="M59.121,0,0,.467,15.194,16.862C56.873,4.851,56.5,5.133,56.453,5.151L84.905,25.084l.789-.847Z" transform="translate(10.561 0)" fill="#d4d4d5"/>
          <path id="Path_134-2" data-name="Path 134" d="M.264,0,0,9.06l6.674-.036Z" transform="translate(126.481 5.837)" fill="#d4d4d5"/>
        </g>
      </g>
    </g>
  </g>
</svg>
